<svg id="Layer_1" data-name="Layer 1" xmlns="http://www.w3.org/2000/svg" width="15mm" height="20mm" viewBox="0 0 42.52 56.69">
  <defs>
    <style>
      .cls-1 {
        fill: #b3e0e8;
      }

      .cls-2 {
        fill: #bce4eb;
      }

      .cls-3 {
        fill: #269596;
      }

      .cls-4 {
        fill: #a5d9e0;
      }

      .cls-5 {
        fill: #a8dce3;
      }

      .cls-6 {
        fill: #6dc0c9;
      }

      .cls-7 {
        fill: #58b3b9;
      }

      .cls-8 {
        fill: #66b9bf;
      }

      .cls-9 {
        fill: #7cc8d3;
      }

      .cls-10 {
        fill: #9bd6de;
      }

      .cls-11 {
        fill: #ea8a3f;
      }

      .cls-12 {
        fill: #8ccfd8;
      }

      .cls-13 {
        fill: #ec924b;
      }

      .cls-14 {
        fill: #359c9e;
      }

      .cls-15 {
        fill: #091414;
      }

      .cls-16 {
        fill: #fefefe;
      }
    </style>
  </defs>
  <g>
    <path class="cls-1" d="M31.61,25.08a19.4,19.4,0,0,0-4.37-3.32c-.7-.41-1.27-1-.74-2a31.78,31.78,0,0,0-5.77-.25c-.72.94-1.76.8-2.75.76-.31,0-.7-.19-.77.27s.37.46.64.58a1.72,1.72,0,0,0,.24,0c.39.1,1.07-.24,1.11.33s-.68.73-1.14.83c-1.86.37-3.73.76-5.61,1-2.35.28-5.46-1.84-6.34-4-.24-.59.51-1.41-.45-1.76-.11,1.28,0,2.59-.13,3.84A19.33,19.33,0,0,0,5.17,26c1.09.61,2,1.64,3.26,1.83s2.2.85,3.38,1.08a2.28,2.28,0,0,1,1.8,2c.05.23.21.49,0,.66-.73.56-.35,1.23-.17,1.83a2.21,2.21,0,0,1-.5,2.21,17.62,17.62,0,0,0-2.49,4.54l2.64,1.18a11.36,11.36,0,0,1,1.85-3.44,14.14,14.14,0,0,0,1.28-2.55,5.39,5.39,0,0,1,1.93-2.37,15.45,15.45,0,0,1-2.9-2.58,6.54,6.54,0,0,1-1.11-2.28c-.08-.27-.41-.59.05-.8s.64.24.75.52A5.68,5.68,0,0,0,16.48,30a12.32,12.32,0,0,0,3.28,2.22A2.08,2.08,0,0,1,22,32c.33.17.57.17.71-.28a1.69,1.69,0,0,1,1.26-1,40.51,40.51,0,0,0,4.46-2.13c.21-.41.71-.35,1-.63a3.32,3.32,0,0,1,2.1-2.23C32.07,25.52,32,25.44,31.61,25.08Zm-3.92,2.65a4,4,0,0,1-3.15.83,11.58,11.58,0,0,1-5.37-1.64c-.69-.49-.29-1,.11-1.23a9.07,9.07,0,0,1,2.28-1.25,5.7,5.7,0,0,0,1.7-.82,3.24,3.24,0,0,1,3-.52,14.5,14.5,0,0,1,4.46,1.79C29.7,25.86,28.73,26.83,27.69,27.73Z"/>
    <path class="cls-2" d="M13.42,33.37a2.21,2.21,0,0,1-.5,2.21,17.62,17.62,0,0,0-2.49,4.54,9.43,9.43,0,0,1-4-5.78C5.84,31.57,5,28.86,5.17,26c1.09.61,2,1.64,3.26,1.83s2.2.85,3.38,1.08a2.28,2.28,0,0,1,1.8,2c.05.23.21.49,0,.66C12.86,32.1,13.24,32.77,13.42,33.37Z"/>
    <path class="cls-3" d="M38.24,24a2.79,2.79,0,0,1-.26.75c-.24.14-.21.34-.11.54l-.06.42a7.21,7.21,0,0,0-1.44,2.87c-.62,1.15-1.64,2.06-2.06,3.34a1.73,1.73,0,0,0-.53.25,14.25,14.25,0,0,1-5.61,3.39l-2.62,0c-.67-.47-1.44-.08-2.14-.27-.72,0-1.17-.8-1.93-.68l-.74-.45c-.67-.73.36-.8.48-1.22a13,13,0,0,0,2.87.77,2.27,2.27,0,0,0,1.92.2c.35.4.83.25,1.23.21,2.56-.25,6.66-2.82,7.43-5.72.29-.18.55-.4.39-.76s-.38-.2-.61-.09a13,13,0,0,1-4.12.88c-.65,0-1.23.47-1.91.2.21-.41.71-.35,1-.63L33,26.91c.58.19,1.08-.22,1.63-.2a1.32,1.32,0,0,0,1.5-1.43c.22.09.35,0,.45-.21l-.23-.77c.32-.29.64-.57,1-.87a1.17,1.17,0,0,0,.36-1.07c-.07-.33-.52-.4-.89-.45L33,21.43l0-.24.73-.24a24.5,24.5,0,0,1,4.53.25C39.41,22.13,38.24,23.09,38.24,24Z"/>
    <path class="cls-4" d="M22,42.77c-1.78.62-3.47-.1-5.19-.33-.34,0-.69-.11-1-.16-.44-1.43-1.36-.62-2.14-.45l-.53-.53a11.36,11.36,0,0,1,1.85-3.44,14.14,14.14,0,0,0,1.28-2.55,5.39,5.39,0,0,1,1.93-2.37,9,9,0,0,0,2.61,1.22l.74.45a3.76,3.76,0,0,0-1.42,1.57,6.46,6.46,0,0,0-1.46,4.87c.09.55.07,1.4.88,1.3s1.33.19,2-.06a.51.51,0,0,1,.49.26A.53.53,0,0,0,22,42.77Z"/>
    <path class="cls-5" d="M17.21,20.57c-.06.4.37.46.64.58a1.72,1.72,0,0,0,.24,0c.39.1,1.07-.24,1.11.33s-.68.73-1.14.83c-1.86.37-3.73.76-5.61,1-2.35.28-5.46-1.84-6.34-4-.24-.59.51-1.41-.45-1.76l.21-.72a1.87,1.87,0,0,1,.43.19c1.77,1.33,3.56,2.66,5.82,3.05a7.38,7.38,0,0,0,5-.81,12.37,12.37,0,0,1,3.59.23c-.72.94-1.76.8-2.75.76C17.67,20.29,17.28,20.11,17.21,20.57Z"/>
    <path class="cls-6" d="M17.15,12.56c-1.62,1.11-3.13.17-4.66-.24a5.6,5.6,0,0,1-.66-.21c-.06,0-.09-.12-.14-.18L9.44,9c.18-.44,1.09-.2.91-1a3.77,3.77,0,0,0-.66-2.8c-.59-.85-1.43-.74-2,.23-.29.14-.48.51-.89.4A5.69,5.69,0,0,1,8.49,2.24c.16.35.31,1,.49,1,1.09.07,1.06,1.09,1.56,1.56a2.62,2.62,0,0,1,1.09,2.24l.73,1c0,.5.28.65.73.71a2,2,0,0,0,2.17-1h2.08A17.15,17.15,0,0,1,17.15,12.56Z"/>
    <path class="cls-7" d="M17.38,6.62c0,.38,0,.76,0,1.14H15.26c.45-2,.12-2.56-1.47-2.62-1.27-.32-1.74,0-1.93,1.31,0,.22,0,.47-.23.6a2.62,2.62,0,0,0-1.09-2.24C10,4.35,10.07,3.33,9,3.26c-.18,0-.33-.67-.49-1A5.24,5.24,0,0,1,15.13,1C16.94,2.27,17.5,4.39,17.38,6.62Z"/>
    <path class="cls-8" d="M35.86,32.24a14.29,14.29,0,0,1-2,3.93c-1.42,2-3.48,3.22-5.42,4.59-.1.07-.37-.09-.55-.14-.31-.6-1.3.43-1.41-.58a3.78,3.78,0,0,1,.18-1.88A12.59,12.59,0,0,1,27.3,37c.25-.5.84-.78.87-1.4a14.25,14.25,0,0,0,5.61-3.39,1.73,1.73,0,0,1,.53-.25C34.82,32.09,35.42,31.77,35.86,32.24Z"/>
    <path class="cls-9" d="M17.1,14.72a7.88,7.88,0,0,1-4.54-.05c-.73-.29-1.16-.77-1.94,0-.33.32-1.12.14-1.71-.06-.89-.31-1.8-.54-2.7-.81L6.6,9.17A8.49,8.49,0,0,1,9.44,9l2.25,3c.05.06.08.16.14.18a5.6,5.6,0,0,0,.66.21c1.53.41,3,1.35,4.66.24A5.42,5.42,0,0,1,17.1,14.72Z"/>
    <path class="cls-10" d="M17.14,19.31a7.38,7.38,0,0,1-5,.81c-2.26-.39-4-1.72-5.82-3.05a1.87,1.87,0,0,0-.43-.19c.1-.64-.22-1.32.22-1.92A21.52,21.52,0,0,0,8.43,16c.77.25,1.34.18,1.65-.65.53.54.71,1.13,1.56,1.38,1.74.51,3.46.26,5.18.35-.11.52-.21,1-.34,1.55S16.74,19.27,17.14,19.31Z"/>
    <path class="cls-11" d="M23.82,54.14c0,.43-.21.81-.24,1.24s-.06,1.15-.82,1-.79-.73-.8-1.28a18.21,18.21,0,0,1,.22-1.92c0-.21.12-.49-.23-.57-.07-.49-.23-.46-.6-.18a.61.61,0,0,1-1-.3c-.14-.38.15-.6.59-.66s.75-.08.71-.6a46.37,46.37,0,0,0,.3-6.12c0-.66.53-1.34,0-2a.53.53,0,0,1,0-.22c.64-.36,1.28-1.49,1.89,0a53.15,53.15,0,0,1-.19,5.92C23.52,50.39,24,52.25,23.82,54.14Z"/>
    <path class="cls-11" d="M15,52.42a1.7,1.7,0,0,0-.23,1.14c-.17,0-.4,0-.36.28,0,.08.21.13.33.19s0,.32-.05.48a3.22,3.22,0,0,1-1.3-.23,4.06,4.06,0,0,1,.24-2.07c.12-.43.12-.43-.52-.32-1.25-.67.67-.55.24-1-.35-.31-.63,0-.92.16s-.5,0-.53-.34l.54-.08c-.05-.09-.09-.25-.15-.25-.22,0-.32.16-.39.33-.45-.38-.2-.77,0-1.16h.25l.32.32.16-.28c1.13.32,1.57,0,1.46-1.26-.19-2.15.25-4.35-.45-6.47.78-.17,1.7-1,2.14.45-.17,2.5.16,5-.17,7.5C16.72,51,15.5,51.62,15,52.42Z"/>
    <path class="cls-12" d="M37.28,23.43c-.32.3-.64.58-1,.87l-2.12.3a6.13,6.13,0,0,0-2.59-2c-1.16-.47-1.83-1.71-3.13-1.93,0,0,0-.29-.06-.44a3.49,3.49,0,0,1,2.23-.09A1,1,0,0,0,32,19.52c.61.42,1.58.42,1.69,1.43l-.73.24c-.19.11-.15.18,0,.24l3.76.48c.37.05.82.12.89.45A1.17,1.17,0,0,1,37.28,23.43Z"/>
    <path class="cls-7" d="M38.69,19.27c-.73.08-1.51.08-1.93-.58-.31-.48-.38-.69-1.06-.48a1.73,1.73,0,0,1-2-2.06c.23-.57.48-1.13.68-1.7.27-.75.85-.56,1.07-.18.39.7,1.19,1.26.8,2.52.87-.88.94-2,1.93-2.4.32-.13.56-.46.94-.29s.32.55.35.92C39.62,16.52,38.71,17.81,38.69,19.27Z"/>
    <path class="cls-12" d="M16.82,17.11c-1.72-.09-3.44.16-5.18-.35-.85-.25-1-.84-1.56-1.38-.31.83-.88.9-1.65.65A21.52,21.52,0,0,1,6.09,15l.12-1.2c.9.27,1.81.5,2.7.81.59.2,1.38.38,1.71.06.78-.73,1.21-.25,1.94,0a7.88,7.88,0,0,0,4.54.05A10.14,10.14,0,0,1,16.82,17.11Z"/>
    <path class="cls-4" d="M33.21,25.78,33,26.91,29.41,28a3.32,3.32,0,0,1,2.1-2.23c.56-.25.45-.33.1-.69a19.4,19.4,0,0,0-4.37-3.32c-.7-.41-1.27-1-.74-2,.62.23,1.34.09,1.92.49,0,.15,0,.44.06.44,1.3.22,2,1.46,3.13,1.93a6.13,6.13,0,0,1,2.59,2,5.58,5.58,0,0,1-.94.41C32.35,25.22,32.89,25.5,33.21,25.78Z"/>
    <path class="cls-6" d="M38.69,19.27c-.21.63-.07,1.34-.47,1.93A24.5,24.5,0,0,0,33.69,21c-.11-1-1.08-1-1.69-1.43a17,17,0,0,1,1-4.46c.07-.24.11-.5.43-.43s.28.34.29.57,0,.64,0,.95a1.73,1.73,0,0,0,2,2.06c.68-.21.75,0,1.06.48C37.18,19.35,38,19.35,38.69,19.27Z"/>
    <path class="cls-9" d="M25.55,41.82c-.35.77-1.26.24-1.71.76-.61-1.52-1.25-.39-1.89,0a.51.51,0,0,0-.49-.26A6.84,6.84,0,0,1,22.18,37c.37-.59,1.12-.9,1.23-1.67.7.19,1.47-.2,2.14.27-.24,1.14-1.07,2-1.43,3.09C23.56,40.37,23.9,41.22,25.55,41.82Z"/>
    <path class="cls-6" d="M27.94,40.62a4,4,0,0,1-2.39,1.2c-1.65-.6-2-1.45-1.43-3.17.36-1.09,1.19-1.95,1.43-3.09l2.62,0c0,.62-.62.9-.87,1.4a12.59,12.59,0,0,0-.59,1.16A3.78,3.78,0,0,0,26.53,40C26.64,41.05,27.63,40,27.94,40.62Z"/>
    <path class="cls-11" d="M9.44,9a8.49,8.49,0,0,0-2.84.21c-.64.14-1.26-.26-1.94,0-.32.1-.74-.28-.84-.7a1,1,0,0,1,.5-1.1c.83-.53,1.68-1,2.52-1.51.41.11.6-.26.89-.4.3.36.58.73.91,1.07.52.55.81,1.38,1.71,1.5C10.53,8.76,9.62,8.52,9.44,9Z"/>
    <path class="cls-13" d="M13.08,51.89c-.41.65-1.18,1-1.29,1.92a.5.5,0,0,1-.65.31c-.25-.1-.7-.22-.61-.45.21-.61-.18-1.47.68-1.83l.2-.05c-.06-.06-.11-.13-.16-.19s.5-.67-.27-.47c-.57.15-.73.69-1.1,1s-.51.66-.93.24a.74.74,0,0,1,0-1.06l.73-.9c.51-.16,1.35.45,1.46-.64.14-.34.42-.34.72-.28-.19.39-.44.78,0,1.16,0,.35.16.49.53.34s.57-.47.92-.16C13.75,51.34,11.83,51.22,13.08,51.89Z"/>
    <path class="cls-13" d="M22,52.63c-1.21.6-1.52,2-2.53,2.79-.2.16-.35.53-.66.3s-.21-.58-.08-.88c.33-.72.67-1.44,1-2.17-.7-.17-.86.6-1.38.63-.39-.23.11-.66-.2-.91a4.53,4.53,0,0,1,3.58-1.5c0,.52-.4.56-.71.6s-.73.28-.59.66a.61.61,0,0,0,1,.3C21.72,52.17,21.88,52.14,22,52.63Z"/>
    <path class="cls-6" d="M37,28.64c-.38,1.2-.3,2.55-1.14,3.6-.44-.47-1-.15-1.55-.28.42-1.28,1.44-2.19,2.06-3.34Z"/>
    <path class="cls-12" d="M37.35,27.79a3.25,3.25,0,0,1-.35.85l-.63,0a7.21,7.21,0,0,1,1.44-2.87C38.39,26.59,37.41,27.08,37.35,27.79Z"/>
    <path class="cls-11" d="M18.31,53.3a.57.57,0,0,1-.27.49l-.17.17c-.35-.08-.72.66-1,0a.73.73,0,0,1,.42-1c.3-.12.36-.63.81-.6C18.42,52.64,17.92,53.07,18.31,53.3Z"/>
    <path class="cls-13" d="M14,55.17c-.42-.08-.84-.3-.63-.89a3.22,3.22,0,0,0,1.3.23C14.78,55.08,14.42,55.26,14,55.17Z"/>
    <path class="cls-11" d="M11.14,49.8c-.11,1.09-1,.48-1.46.64A1.23,1.23,0,0,1,11.14,49.8Z"/>
    <path class="cls-13" d="M14.71,54c-.12-.06-.32-.11-.33-.19,0-.26.19-.25.36-.28C15,53.74,15,53.89,14.71,54Z"/>
    <path class="cls-12" d="M37.87,25.33c-.1-.2-.13-.4.11-.54C38.4,25.06,38.18,25.21,37.87,25.33Z"/>
    <path class="cls-13" d="M12.59,49.56l-.16.28-.32-.32Z"/>
    <path class="cls-13" d="M18,53.79c0,.14,0,.21-.17.17Z"/>
    <path class="cls-11" d="M11.41,51.79l-.2.05a2,2,0,0,1,0-.24C11.3,51.66,11.35,51.73,11.41,51.79Z"/>
    <path class="cls-2" d="M30.74,24.89c-1,1-2,1.94-3,2.84a4,4,0,0,1-3.16.82,11.57,11.57,0,0,1-5.37-1.63c-.69-.49-.29-1,.11-1.24a9.75,9.75,0,0,1,2.28-1.25,5.68,5.68,0,0,0,1.7-.81,3.24,3.24,0,0,1,3-.52A14.5,14.5,0,0,1,30.74,24.89Z"/>
    <path class="cls-10" d="M24.09,33.71a13.54,13.54,0,0,1-2.87-.78l-1.46-.7A2.08,2.08,0,0,1,22,32c.33.16.57.16.71-.28a1.72,1.72,0,0,1,1.26-1,38.06,38.06,0,0,0,4.47-2.13c.67.28,1.25-.24,1.9-.2.07.51-.23.76-.63,1-1.61,1-3.18,2.15-4.79,3.2C24.5,32.91,24.11,33.15,24.09,33.71Z"/>
    <path class="cls-14" d="M19.76,32.23l1.46.7c-.12.43-1.15.5-.48,1.23a9.45,9.45,0,0,1-2.61-1.23,15.05,15.05,0,0,1-2.9-2.57,6.71,6.71,0,0,1-1.11-2.28c-.08-.27-.41-.59.05-.81s.64.25.75.53A5.68,5.68,0,0,0,16.48,30,12.32,12.32,0,0,0,19.76,32.23Z"/>
    <path class="cls-10" d="M23.41,35.29c-.11.77-.86,1.07-1.23,1.67a6.83,6.83,0,0,0-.72,5.33c-.65.24-1.31,0-2,.06s-.79-.75-.88-1.3a6.45,6.45,0,0,1,1.46-4.87,3.77,3.77,0,0,1,1.42-1.57C22.24,34.49,22.69,35.28,23.41,35.29Z"/>
    <path class="cls-12" d="M24.09,33.71c0-.56.41-.8.82-1.07,1.61-1.05,3.18-2.15,4.79-3.2.4-.26.7-.51.63-1a12.59,12.59,0,0,0,4.12-.87c.23-.12.49-.2.61.08s-.1.59-.39.76a2.15,2.15,0,0,0-1.23.38A47.49,47.49,0,0,0,26,33.91,2.31,2.31,0,0,1,24.09,33.71Z"/>
    <path class="cls-9" d="M26,33.91a47.49,47.49,0,0,1,7.43-5.14,2.15,2.15,0,0,1,1.23-.38c-.77,2.9-4.87,5.47-7.43,5.73C26.84,34.16,26.36,34.31,26,33.91Z"/>
    <path class="cls-10" d="M33,26.91l.24-1.13a6.5,6.5,0,0,1,2.89-.51,1.32,1.32,0,0,1-1.5,1.43C34.05,26.69,33.55,27.1,33,26.91Z"/>
    <path class="cls-14" d="M36.1,25.27a6.5,6.5,0,0,0-2.89.51c-.32-.28-.86-.56.06-.78a5,5,0,0,0,.93-.4l2.12-.3c.08.25.15.51.23.76-.2,0-.39,0-.46.22Z"/>
    <path class="cls-10" d="M36.09,25.28c.07-.24.26-.23.46-.22C36.45,25.26,36.32,25.37,36.09,25.28Z"/>
    <path class="cls-6" d="M33,21.42c-.18-.05-.22-.13,0-.23Z"/>
    <path class="cls-15" d="M11.63,7.06c.27-.13.2-.39.23-.61.19-1.3.66-1.62,1.93-1.3A1.77,1.77,0,0,1,14.43,7C14.1,8,13.3,8.15,12.36,8Z"/>
    <path class="cls-16" d="M10.35,8C9.45,7.87,9.16,7,8.64,6.49c-.33-.34-.61-.71-.91-1.07.53-1,1.37-1.08,2-.23A3.74,3.74,0,0,1,10.35,8Z"/>
    <path class="cls-16" d="M12.36,8C13.3,8.15,14.1,8,14.43,7a1.77,1.77,0,0,0-.64-1.81c1.59.06,1.92.65,1.47,2.61a2,2,0,0,1-2.17,1C12.65,8.67,12.35,8.52,12.36,8Z"/>
    <path class="cls-13" d="M11.87,50.68c.07-.18.17-.36.39-.34.06,0,.1.17.15.25l-.54.09Z"/>
  </g>
</svg>
