<svg id="Layer_1" data-name="Layer 1" xmlns="http://www.w3.org/2000/svg" width="15mm" height="20mm" viewBox="0 0 42.52 56.69">
  <defs>
    <style>
      .cls-1 {
        fill: #fefefe;
      }

      .cls-2 {
        fill: #b2e0e8;
      }

      .cls-3 {
        fill: #bce4eb;
      }

      .cls-4 {
        fill: #69bac1;
      }

      .cls-5 {
        fill: #269496;
      }

      .cls-6 {
        fill: #a4d9df;
      }

      .cls-7 {
        fill: #a7dce3;
      }

      .cls-8 {
        fill: #57b2b9;
      }

      .cls-9 {
        fill: #99d5dd;
      }

      .cls-10 {
        fill: #ea8a3f;
      }

      .cls-11 {
        fill: #7cc5cd;
      }

      .cls-12 {
        fill: #8ecfd6;
      }

      .cls-13 {
        fill: #72c3cc;
      }

      .cls-14 {
        fill: #ec924b;
      }

      .cls-15 {
        fill: #359c9e;
      }

      .cls-16 {
        fill: #091819;
      }
    </style>
  </defs>
  <g>
    <path class="cls-1" d="M20.64,43.05a2.48,2.48,0,0,0,.91-.25h0A2.36,2.36,0,0,1,20.64,43.05Z"/>
    <path class="cls-2" d="M31.24,25.09A22.84,22.84,0,0,0,27,21.85a1.93,1.93,0,0,1-1.09-2.06,26.23,26.23,0,0,0-5.53-.25c-.73.94-1.76.79-2.75.76-.31,0-.7-.19-.77.27s.36.45.64.58a1.85,1.85,0,0,0,.23,0c.39.1,1.07-.24,1.12.33s-.69.73-1.15.82c-1.86.38-3.72.76-5.6,1-2.35.27-5.47-1.84-6.34-4-.25-.6.51-1.41-.46-1.77a28.91,28.91,0,0,1-.13,4,14.48,14.48,0,0,0-.35,4.2C6.59,27.58,9,28,11.36,28.63c1.73.46,2.39,1.75,1.66,3.51,0,.11-.12.25-.09.33.88,2-.53,3.26-1.41,4.75a6.83,6.83,0,0,0-1.26,2.92,15.75,15.75,0,0,0,2.42,1.15c1.23-2.48,2.55-4.91,4-7.27a2.65,2.65,0,0,1,1.06-1.09c-.68-.65-1.55-1.06-2.21-1.77A7.73,7.73,0,0,1,13.66,28c-.08-.27-.25-.53.14-.69s.53.09.62.36c.63,1.79,2.11,2.81,3.54,3.87.34.25.66.59,1.16.5a11,11,0,0,1,2.4-.35c.95,0,1.75-.93,2.72-1.28,1.3-.48,2.53-1.15,3.78-1.74.21-.4.71-.34,1-.63a3.15,3.15,0,0,1,2.07-2.22C31.64,25.57,31.61,25.48,31.24,25.09Zm-1.1,0c-1.29,1-2.2,2.37-3.76,3-.68.29-1.43.11-2,.44-1.84-.48-3.77-.5-5.29-1.79-.42-.35-.43-.56-.14-1s.93-.59,1.39-.88c2.43-1.49,5-2.48,7.84-1.32.67.27,1.08,1,1.93,1C30.29,24.68,30.34,25,30.14,25.13Z"/>
    <path class="cls-3" d="M12.93,32.47c.88,2-.53,3.26-1.41,4.75a6.83,6.83,0,0,0-1.26,2.92c-2-1.26-3.73-2.77-4.08-5.36a17.23,17.23,0,0,0-.73-2.71,18.5,18.5,0,0,1-.67-6.32C6.59,27.58,9,28,11.36,28.63c1.73.46,2.39,1.75,1.66,3.51C13,32.25,12.9,32.39,12.93,32.47Z"/>
    <path class="cls-4" d="M36,31c-.44,1.37-1.28,2.59-1.76,3.89s-1.65,2.19-2.51,3.19a7.72,7.72,0,0,1-3.49,2.39c-.94.28-1.57,1.18-2.59,1.1a3.69,3.69,0,0,1-.14-4,4,4,0,0,0,.83-1.92,9.33,9.33,0,0,0,5.19-1.9A18,18,0,0,0,35,30.3C35.41,30.41,35.44,31.07,36,31Z"/>
    <path class="cls-5" d="M37.84,24a2.48,2.48,0,0,1-.26.75c-.24.14-.21.33-.11.54s0,.28,0,.42c-.38.08-.42.39-.56.68C36.26,27.74,35.61,29,35,30.3a18,18,0,0,1-3.46,3.46,9.33,9.33,0,0,1-5.19,1.9,9.9,9.9,0,0,0-2.87-.29c-.87,0-1.5-.78-2.37-.78l-.74-.43c-.65-.73.37-.8.49-1.23l2.39.7a3.72,3.72,0,0,0,2.39.28c.35.4.83.25,1.23.21,2.57-.25,6.67-2.82,7.44-5.72.29-.18.53-.4.39-.77a.34.34,0,0,0-.51-.14c-1.38.82-3,.63-4.46,1-.56,0-1.1.34-1.68.1.21-.4.71-.34,1-.63l3.32-1.08c.63.19,1.22-.21,1.83-.19,1,0,1.47-.49,1.53-1.44.22.09.36,0,.45-.22l-.22-.76c.29-.27.56-.55.87-.79a1.23,1.23,0,0,0,.45-1.15c-.09-.38-.6-.41-1-.46-1.21-.14-2.42-.32-3.64-.48a1.79,1.79,0,0,1,0-.23l.48-.24a27.19,27.19,0,0,1,4.77.24C39,22.13,37.84,23.09,37.84,24Z"/>
    <path class="cls-6" d="M21.55,42.79h0a2.48,2.48,0,0,1-.91.25A7.32,7.32,0,0,1,19.16,43c-1.28-.14-2.54-.45-3.81-.69-.45-1.42-1.36-.62-2.15-.45l-.52-.53c1.23-2.48,2.55-4.91,4-7.27a2.65,2.65,0,0,1,1.06-1.09,9.26,9.26,0,0,0,2.6,1.23l.74.43c0,.45-.4.66-.6,1-1.12,1.84-2.68,3.54-1.8,6a.94.94,0,0,0,1,.78c.48,0,1.13-.32,1.57.07a.47.47,0,0,1,.1.1A1.13,1.13,0,0,1,21.55,42.79Z"/>
    <path class="cls-7" d="M16.82,20.57c-.07.4.36.45.64.58a1.85,1.85,0,0,0,.23,0c.39.1,1.07-.24,1.12.33s-.69.73-1.15.82c-1.86.38-3.72.76-5.6,1-2.35.27-5.47-1.84-6.34-4-.25-.6.51-1.41-.46-1.77.07-.32.15-.63.22-.95.41,0,.62.3.89.53A10.51,10.51,0,0,0,13.74,20a3,3,0,0,0,2.3-.7,18.2,18.2,0,0,1,4.3.27c-.73.94-1.76.79-2.75.76C17.28,20.29,16.89,20.11,16.82,20.57Z"/>
    <path class="cls-8" d="M16.93,7l-2.06-.23a.63.63,0,0,0-.5-.94,1.93,1.93,0,0,0-2.65-.74L8.09,2.25A5.31,5.31,0,0,1,14.72.94c1.5.94,2,2.69,2.25,4.44A10.26,10.26,0,0,1,16.93,7Z"/>
    <path class="cls-9" d="M11.49,16.19c-.35-.16-.68-.4-1-.54s-.7-.57-1.06.11c-.19.35-.72.11-1.11,0A17,17,0,0,0,5.7,15c-.3.18-.21.46-.19.72.15,0,.34.05.34.25s-.19.22-.34.24l0,.48c.41,0,.62.3.89.53A10.51,10.51,0,0,0,13.74,20a3,3,0,0,0,2.3-.7c.15-.88.29-1.76.44-2.64A8.94,8.94,0,0,1,11.49,16.19Zm.61,3.15s-.09,0-.09,0a.38.38,0,0,1,0-.1l.09,0A.38.38,0,0,1,12.1,19.34Z"/>
    <path class="cls-4" d="M16.94,11.12a5.54,5.54,0,0,1-5.18-1.91C11.32,8.72,11,7.84,10,8L10,8a3.7,3.7,0,0,0-.66-2.81c-.58-.85-1.43-.74-2,.24-.29.14-.47.5-.88.4A5.76,5.76,0,0,1,8.09,2.25l3.63,2.88-.5.86c-.73.34-.12.7,0,1.06-.13.11-.14.19,0,.22h0c.29,1,1,1.19,2.14.63a2.27,2.27,0,0,0,1.48-1.1L16.93,7C16.93,8.4,16.94,9.76,16.94,11.12Z"/>
    <path class="cls-10" d="M23.43,54.14c0,.43-.21.81-.24,1.24s-.06,1.15-.82,1-.8-.74-.8-1.28.15-1.28.21-1.92c0-.21.13-.49-.23-.57-.06-.5-.23-.46-.59-.18a.62.62,0,0,1-1-.31c-.14-.37.16-.59.59-.65s.75-.08.71-.6c.44-2.69.11-5.42.45-8.12.13-.22.34-.41.29-.71.78-.69,1.08,0,1.41.51a48.73,48.73,0,0,1-.19,5.92C23.13,50.38,23.59,52.24,23.43,54.14Z"/>
    <path class="cls-11" d="M16.76,14c-.36.46-.88.43-1.4.52-1.21.21-2.31-.42-3.49-.36-2.07.1-4.12.14-5.93-1.1-.16-1.27.51-2.51.15-3.79A5,5,0,0,1,8.83,9c.18,2.29,1.4,3.67,3.36,3.8q.12.21.24,0c.2-.1.34-.5.63-.07a1.65,1.65,0,0,0,1.61.56c.67,0,1.35,0,2,0Z"/>
    <path class="cls-10" d="M15.28,49.88a2.91,2.91,0,0,1-.66,2.44,1.44,1.44,0,0,0-.27,1.24c-.18,0-.41,0-.37.27,0,.08.22.14.34.2s0,.32-.05.48A3.27,3.27,0,0,1,13,54.27a4,4,0,0,1,.24-2.06c.13-.43.12-.43-.51-.32-1.3-.75.56-.51.19-1.09-.46-.4-.93.6-1.61.17.82-.2.8-.85.93-1.41,1.13.32,1.56,0,1.46-1.27-.19-2.15.25-4.34-.46-6.47.79-.17,1.7-1,2.15.45C15.18,44.81,15.27,47.35,15.28,49.88Z"/>
    <path class="cls-11" d="M25.63,41.59c-.55.74-1.51.56-2.19,1-.33-.55-.63-1.2-1.41-.51a12.82,12.82,0,0,1-.51-2c-.07-1.88,1.22-3.14,1.93-4.66a9.9,9.9,0,0,1,2.87.29,4,4,0,0,1-.83,1.92A3.69,3.69,0,0,0,25.63,41.59Z"/>
    <path class="cls-12" d="M21.52,40a12.82,12.82,0,0,0,.51,2c0,.3-.16.49-.29.71l-.19,0a1.13,1.13,0,0,0-.16-.27.47.47,0,0,0-.1-.1c-.44-.39-1.09-.05-1.57-.07a.94.94,0,0,1-1-.78c-.88-2.45.68-4.15,1.8-6,.2-.33.6-.54.6-1,.87,0,1.5.76,2.37.78C22.74,36.89,21.45,38.15,21.52,40Z"/>
    <path class="cls-13" d="M16.7,13.28c-.68,0-1.36,0-2,0a1.65,1.65,0,0,1-1.61-.56c-.29-.43-.43,0-.63.07h-.24c-2-.13-3.18-1.51-3.36-3.8C9.17,8.61,10,8.77,10,8c1-.18,1.31.7,1.75,1.19a5.54,5.54,0,0,0,5.18,1.91A4.55,4.55,0,0,1,16.7,13.28Z"/>
    <path class="cls-12" d="M16.48,16.63a8.94,8.94,0,0,1-5-.44c-.35-.16-.68-.4-1-.54s-.7-.57-1.06.11c-.19.35-.72.11-1.11,0A17,17,0,0,0,5.7,15c.14-.63-.23-1.32.24-1.91,1.81,1.24,3.86,1.2,5.93,1.1,1.18-.06,2.28.57,3.49.36.52-.09,1-.06,1.4-.52A7.4,7.4,0,0,1,16.48,16.63Z"/>
    <path class="cls-12" d="M36.8,23.51c-.31.24-.58.52-.87.79l-2.13.3A30.08,30.08,0,0,0,28.36,21c-.34-.18-.32-.41-.33-.68a3.55,3.55,0,0,1,2.23-.09,1,1,0,0,0,1.35-.67c.7.27,1.37.56,1.45,1.44l-.48.24c-.2.1-.17.17,0,.23,1.22.16,2.43.34,3.64.48.41.05.92.08,1,.46A1.23,1.23,0,0,1,36.8,23.51Z"/>
    <path class="cls-8" d="M38.29,19.27c-.81.06-1.69.06-2-.78-.24-.6-.42-.41-.83-.31a1.75,1.75,0,0,1-2.12-2A16.89,16.89,0,0,0,34,14.57c.32-1,.93-.71,1.24-.15s1.08,1.23.83,2.18c.64-.81.89-1.86,1.88-2.32.28-.13.53-.37.86-.16s.29.47.33.81C39.24,16.46,38.33,17.78,38.29,19.27Z"/>
    <path class="cls-4" d="M38.29,19.27c-.21.63-.07,1.34-.46,1.92A27.19,27.19,0,0,0,33.06,21c-.08-.88-.75-1.17-1.45-1.44a15.42,15.42,0,0,1,1-4.33c.08-.24,0-.62.44-.54s.27.42.28.68,0,.56,0,.83a1.75,1.75,0,0,0,2.12,2c.41-.1.59-.29.83.31C36.6,19.33,37.48,19.33,38.29,19.27Z"/>
    <path class="cls-6" d="M32.82,25.78l-.48,1.13L29,28a3.15,3.15,0,0,1,2.07-2.22c.55-.2.52-.29.15-.68A22.84,22.84,0,0,0,27,21.85a1.93,1.93,0,0,1-1.09-2.06,6.22,6.22,0,0,1,2.16.48c0,.27,0,.5.33.68A30.08,30.08,0,0,1,33.8,24.6a5,5,0,0,1-.93.4C32,25.22,32.49,25.5,32.82,25.78Z"/>
    <path class="cls-10" d="M10,8c0,.75-.84.59-1.18,1a5,5,0,0,0-2.74.25C5.52,9.3,5,8.88,4.37,9.13c-.36.15-.83-.24-.94-.71a1,1,0,0,1,.5-1.1c.83-.52,1.68-1,2.52-1.5.41.1.59-.26.88-.4.3.36.59.73.91,1.07C8.76,7,9.06,7.86,10,8Z"/>
    <path class="cls-14" d="M12.69,51.89c-.38.63-1.13,1-1.27,1.82a.52.52,0,0,1-.81.35c-.34-.17-.52-.27-.47-.77A6.73,6.73,0,0,1,11,51.11c-.88-.1-1.1.65-1.55,1-.27.25-.42.61-.83.3A.73.73,0,0,1,8.5,51.4a3.3,3.3,0,0,1,3.7-1.84c-.13.56-.11,1.21-.93,1.41.68.43,1.15-.57,1.61-.17C13.25,51.38,11.39,51.14,12.69,51.89Z"/>
    <path class="cls-14" d="M21.55,52.63c-1.21.59-1.52,2-2.52,2.78-.21.16-.36.54-.66.31s-.22-.58-.08-.88c.32-.73.67-1.44,1-2.17-.7-.18-.86.6-1.39.63-.36-.24.09-.65-.19-.91a4.46,4.46,0,0,1,3.57-1.5c0,.52-.39.56-.71.6s-.73.28-.59.65a.62.62,0,0,0,1,.31C21.32,52.17,21.49,52.13,21.55,52.63Z"/>
    <path class="cls-12" d="M37.17,27.22c-.39,1.27-.79,2.54-1.19,3.8-.54.05-.57-.61-1-.72.64-1.29,1.29-2.56,1.89-3.87.14-.29.18-.6.56-.68C37.94,26.34,37.32,26.74,37.17,27.22Z"/>
    <path class="cls-10" d="M17.91,53.3a.55.55,0,0,1-.26.49l-.18.17c-.34-.09-.71.66-1,0a.75.75,0,0,1,.42-1c.3-.12.37-.63.82-.59C18,52.65,17.55,53.06,17.91,53.3Z"/>
    <path class="cls-14" d="M13.59,55.17c-.41-.08-.84-.31-.63-.9a3.27,3.27,0,0,0,1.31.24C14.39,55.08,14,55.26,13.59,55.17Z"/>
    <path class="cls-14" d="M14.32,54c-.12-.06-.33-.12-.34-.2,0-.25.19-.24.37-.27C14.65,53.74,14.61,53.89,14.32,54Z"/>
    <path class="cls-7" d="M5.85,15.92c0,.2-.19.22-.34.24v-.49C5.66,15.7,5.85,15.72,5.85,15.92Z"/>
    <path class="cls-12" d="M37.47,25.33c-.1-.21-.13-.4.11-.54C38,25.06,37.78,25.2,37.47,25.33Z"/>
    <path class="cls-14" d="M17.65,53.79c0,.13,0,.21-.18.17Z"/>
    <path class="cls-3" d="M24.36,28.59c-1.84-.48-3.77-.5-5.29-1.79-.42-.35-.42-.56-.14-1s.93-.59,1.4-.88c2.42-1.49,5-2.48,7.83-1.32.67.27,1.09,1,1.93,1,.2,0,.25.31.05.46-1.29,1-2.2,2.37-3.76,3C25.7,28.43,25,28.26,24.36,28.59Z"/>
    <path class="cls-6" d="M23.22,33.63l-2.39-.7c-.46-.51-1.36-.23-1.71-.94a11.12,11.12,0,0,1,2.4-.35c.95,0,1.75-.93,2.72-1.29,1.3-.47,2.53-1.14,3.78-1.73.58.23,1.12-.1,1.68-.1,0,.31-.17.48-.4.68-1.45,1.24-3.17,2.08-4.72,3.17C24.07,32.73,23.48,33,23.22,33.63Z"/>
    <path class="cls-15" d="M19.12,32c.35.71,1.25.43,1.71.94-.12.42-1.14.49-.49,1.23a9.26,9.26,0,0,1-2.6-1.23c-.68-.65-1.54-1.06-2.2-1.77A7.86,7.86,0,0,1,13.66,28c-.07-.27-.24-.53.14-.69s.53.09.62.36c.63,1.79,2.11,2.8,3.54,3.86C18.3,31.74,18.63,32.08,19.12,32Z"/>
    <path class="cls-12" d="M23.22,33.63c.26-.63.85-.9,1.36-1.26,1.55-1.09,3.27-1.93,4.72-3.17.23-.2.41-.37.4-.68,1.47-.4,3.08-.21,4.46-1a.34.34,0,0,1,.51.13c.14.38-.1.6-.39.77a2.08,2.08,0,0,0-1.23.38,47.57,47.57,0,0,0-7.44,5.14A3.79,3.79,0,0,1,23.22,33.63Z"/>
    <path class="cls-11" d="M25.61,33.91a47.57,47.57,0,0,1,7.44-5.14,2.08,2.08,0,0,1,1.23-.38c-.77,2.9-4.87,5.47-7.44,5.73C26.44,34.16,26,34.31,25.61,33.91Z"/>
    <path class="cls-9" d="M32.34,26.91l.48-1.14a6.6,6.6,0,0,1,2.88-.51c-.06,1-.5,1.49-1.53,1.46C33.56,26.7,33,27.09,32.34,26.91Z"/>
    <path class="cls-15" d="M35.7,25.26a6.6,6.6,0,0,0-2.88.51c-.33-.28-.86-.55,0-.77a5.43,5.43,0,0,0,.93-.4l2.13-.3c.07.25.15.51.23.76-.2,0-.39,0-.47.21Z"/>
    <path class="cls-9" d="M35.69,25.27c.08-.24.27-.23.47-.21C36.06,25.25,35.92,25.37,35.69,25.27Z"/>
    <path class="cls-4" d="M32.6,21.41c-.19-.05-.22-.12,0-.22C32.59,21.26,32.59,21.34,32.6,21.41Z"/>
    <path class="cls-16" d="M14.87,6.81A2.2,2.2,0,0,1,13.39,7.9a5.94,5.94,0,0,1-2.14-.63h0a.42.42,0,0,0-.05-.22c-.1-.36-.71-.72,0-1.07,1.55,1.11,2.15,1.09,3.16-.11A.63.63,0,0,1,14.87,6.81Z"/>
    <path class="cls-15" d="M14.38,5.87c-1,1.2-1.61,1.22-3.16.11l.5-.85A1.94,1.94,0,0,1,14.38,5.87Z"/>
    <path class="cls-7" d="M12,19.2l.09,0a.54.54,0,0,1,0,.1s-.09,0-.09,0A.45.45,0,0,1,12,19.2Z"/>
    <path class="cls-1" d="M10,8c-.89-.14-1.18-1-1.71-1.51-.32-.33-.61-.71-.91-1.07.53-1,1.38-1.09,2-.23A3.73,3.73,0,0,1,10,8Z"/>
    <path class="cls-15" d="M11.25,7.27a5.94,5.94,0,0,0,2.14.63C12.24,8.46,11.53,8.25,11.25,7.27Z"/>
    <path class="cls-15" d="M11.2,7.05a.42.42,0,0,1,.05.22C11.07,7.23,11.07,7.15,11.2,7.05Z"/>
    <path class="cls-12" d="M12.19,12.8h.24Q12.31,13,12.19,12.8Z"/>
  </g>
</svg>
