<svg id="Layer_1" data-name="Layer 1" xmlns="http://www.w3.org/2000/svg" width="21mm" height="20mm" viewBox="0 0 59.53 56.69">
  <defs>
    <style>
      .cls-1 {
        fill: #b4e1e8;
      }

      .cls-2 {
        fill: #a8dbe2;
      }

      .cls-3 {
        fill: #389ea1;
      }

      .cls-4 {
        fill: #3ca0a2;
      }

      .cls-5 {
        fill: #bce4eb;
      }

      .cls-6 {
        fill: #93d1d9;
      }

      .cls-7 {
        fill: #58b3b9;
      }

      .cls-8 {
        fill: #7ac7d1;
      }

      .cls-9 {
        fill: #70bec5;
      }

      .cls-10 {
        fill: #64b8be;
      }

      .cls-11 {
        fill: #ea8a3f;
      }

      .cls-12 {
        fill: #ec924b;
      }

      .cls-13 {
        fill: #99d2d7;
      }

      .cls-14 {
        fill: #8eccd0;
      }

      .cls-15 {
        fill: #071010;
      }

      .cls-16 {
        fill: #fefefe;
      }
    </style>
  </defs>
  <g>
    <path class="cls-1" d="M44.85,26.29a1.24,1.24,0,0,0-.29.2c-1.64,2.11-4,3-6.38,4-.7.3-1.67.06-2.12.93H35.8a2.16,2.16,0,0,0-1.4.47,2.72,2.72,0,0,0-2.83,1.5,65.41,65.41,0,0,0-4.38,8.06h0c-1-.5-2.17-.65-2.89-1.63,1.09-1.57,1.82-3.33,2.77-5,.77-1.34-.57-2.84-.48-4.33,0,0,0-.07-.08-.09a5.37,5.37,0,0,0-3.6-1.27c-.74.06-1.41.22-1.62,1.23A1.81,1.81,0,0,1,20,31.91v-.07c-.34-.5-.95-.45-1.42-.69-1-.5-2.15.08-3.11-.51.1-.8.9-1.07,1.25-1.71a10.75,10.75,0,0,0,.66-2.67,9.25,9.25,0,0,0,.73-3.08c0-.23,0-.49.28-.59s.46.08.66.2.2.5.31.74c.38.79,1.18.92,1.9,1.1a.74.74,0,0,0,.86-.66c.23-1.4,1.05-1,1.86-.66a5.24,5.24,0,0,0,3,.49,15.19,15.19,0,0,1,2.66-.57,9.2,9.2,0,0,0,3.69-.83c.67-.25.91-.24,1.1.41s.57.47,1,.31a4.41,4.41,0,0,0,1.49-1,2,2,0,0,1,2-.52,10.19,10.19,0,0,1,2.54,1c1.07.56,2,1.44,3.24,1.66a1.84,1.84,0,0,1,1.22,1.26C46,26.1,45.19,26.06,44.85,26.29Z"/>
    <path class="cls-2" d="M46.56,26.72a38.55,38.55,0,0,1-5.59,4c-.37.18-.84.35-.85.91-1.1.15-2.22-.18-3.33.08l-.73-.28h0c.45-.87,1.42-.63,2.12-.93,2.34-1,4.74-1.87,6.38-4a1.24,1.24,0,0,1,.29-.2c.34-.23,1.11-.19.94-.71a1.84,1.84,0,0,0-1.22-1.26c-1.28-.22-2.17-1.1-3.24-1.66a10.19,10.19,0,0,0-2.54-1,2,2,0,0,0-2,.52,4.41,4.41,0,0,1-1.49,1c-.39.16-.79.26-1-.31s-.43-.66-1.1-.41a9.2,9.2,0,0,1-3.69.83,15.19,15.19,0,0,0-2.66.57,5.24,5.24,0,0,1-3-.49c-.81-.37-1.63-.74-1.86.66a.74.74,0,0,1-.86.66c-.72-.18-1.52-.31-1.9-1.1-.11-.24,0-.57-.31-.74s-.4-.28-.66-.2-.3.36-.28.59a9.25,9.25,0,0,1-.73,3.08,10.75,10.75,0,0,1-.66,2.67c-.35.64-1.15.91-1.25,1.71-1.31.21-2.36-.56-3.44-1a6.87,6.87,0,0,1-3.83-3c.42-.55.88-.86,1.57-.37a.38.38,0,0,0,.64-.27c.21-.88.54-.66.86-.08.19.34.39.45.77.28s.64-.18.48-.53c-.35-.82.1-1,.76-1.24s.78-.64,1.07-1.07a18.12,18.12,0,0,1,3.55-4.44,12.87,12.87,0,0,0,.95.87c.25.19.41.69.83.43s.08-.64.09-1c.07-.5-.1-1,.14-1.52,3.43,1.28,7,1.41,10.63,1.45,1,.52,2.12.09,3.17.32.18,0,.37,0,.46.21-.11.2-.32.19-.51.22-.58.07-1.41,0-1.5.63-.12.77.92.34,1.25.77s.94.7,1-.29a6.12,6.12,0,0,0,2.1-1,27.58,27.58,0,0,1,4.12-2.11,3,3,0,0,0,1.15,2.5,16.29,16.29,0,0,0,4.5,3C47.91,24.17,48,25.66,46.56,26.72Z"/>
    <path class="cls-3" d="M52.15,24.9l0,.29v0c-1.2.69-2.65,1.2-2.22,3.07a6.82,6.82,0,0,0-1.5,2.38,1.12,1.12,0,0,0-1,.48c-1.34,1.38-3.14,1.67-4.87,2.15l-2.63,0c-.09-.18-.19-.18-.29,0l-.22.2a2.28,2.28,0,0,0-2.12-.21l-.52-.69,0-.92c1.11-.26,2.23.07,3.33-.08A9.33,9.33,0,0,0,44.59,31a5.46,5.46,0,0,0,3.68-4.29c0-.51.42-.74.66-1.09.48-.73,1.56-.87,1.78-1.84.85-.39,1.13-1.28,1.67-1.94.1-.36,1-1.09-.36-.81-.17,0-.35-.05-.29-.22s.26-.27.39-.41a1.62,1.62,0,0,0,1.58-1.53c.12-1,.18-2.05.21-3.08,0-.47-.18-.6-.66-.29-1.64,1-3.31,2-5,3-.43.1-.83.67-1.25.36s.26-.53.31-.84c2.07-1,3.85-2.5,5.83-3.66.42-.25.42-.57.17-1-.67-1.19-1.05-1.29-2.42-.74-1.85.74-3.85,1.19-5.28,2.74a4,4,0,0,0-1.92,1l-1.2.76a6.73,6.73,0,0,0-1.9.89A27.58,27.58,0,0,0,36.5,20a6.12,6.12,0,0,1-2.1,1,1.06,1.06,0,0,0-1,.29c-.33-.43-1.37,0-1.25-.77.09-.61.92-.56,1.5-.63.19,0,.4,0,.51-.22a118.76,118.76,0,0,0,11.34-6.47,29.76,29.76,0,0,1,5.64-2.83,2.48,2.48,0,0,1,2.49.52,6.27,6.27,0,0,1,2.13,4.87A12.3,12.3,0,0,1,52.15,24.9Z"/>
    <path class="cls-4" d="M20,31.84a2.69,2.69,0,0,1-2,.46,14.91,14.91,0,0,1-9.61-3.15C7,28.07,6,26.78,6.77,24.88a.82.82,0,0,0-.55-1.07c-3.33-1.32-4-4.15-4.26-7.28a19.75,19.75,0,0,1,0-5.21c.07-.34.18-.68.27-1A1.43,1.43,0,0,1,4.31,9.2a59.39,59.39,0,0,1,6.37,2.71c3.57,1.78,6.33,4.51,9.05,7.32,0,.33.3.73-.09,1s-.58-.24-.83-.43a12.87,12.87,0,0,1-.95-.87c0-.33-.3-.41-.5-.59-1.13-1-2.25-1.95-3.37-2.93a1.78,1.78,0,0,0-1.2-.56,5.36,5.36,0,0,0-1.65-1.18c-.74-.28-1.3-1-2.18-.93a19.8,19.8,0,0,0-4.6-2.06.52.52,0,0,0-.69.31c-.23.87-.76,1.84,0,2.64a8.48,8.48,0,0,0,2.34,2A7.72,7.72,0,0,0,7.52,17c-.34.39-.61.15-.9-.08A11.44,11.44,0,0,1,4,14.75c-.11-.16-.23-.35-.46-.26s-.37.27-.3.46c.4,1.05-.18,2.31.68,3.26.1.24-.27.45-.05.7.16,2,1.6,3,3.13,3.79a1.84,1.84,0,0,1,1.08,2.56,1.46,1.46,0,0,0,.09,1.36,6.87,6.87,0,0,0,3.83,3c1.08.46,2.13,1.23,3.44,1,1,.59,2.12,0,3.11.51C19,31.39,19.62,31.34,20,31.84Z"/>
    <path class="cls-5" d="M27.06,34.82c-.95,1.65-1.68,3.41-2.77,5-1.08.09-1.3-1-1.88-1.5-1.89-1.67-1.9-4.15-2.45-6.39a1.81,1.81,0,0,0,1.32-1.55c.21-1,.88-1.17,1.62-1.23a5.37,5.37,0,0,1,3.6,1.27s.08.06.08.09C26.49,32,27.83,33.48,27.06,34.82Z"/>
    <path class="cls-2" d="M35,35.49a7.48,7.48,0,0,0-2,5.54c.08.83.1,1.65,1.42,1.46.47-.07,1.37-.52,1.7.45a4.25,4.25,0,0,1-2.39.16c-1.28-.14-2.54-.45-3.81-.69-.45-1.44-1.37-.62-2.15-.45l-.52-.53a65.41,65.41,0,0,1,4.38-8.06,2.72,2.72,0,0,1,2.83-1.5c.62.77,1.64.28,2.36.74l.52.69C36.16,33.67,35.64,34.67,35,35.49Z"/>
    <path class="cls-6" d="M31.27,14.62a20.54,20.54,0,0,1-.77,4.54c-3.6,0-7.2-.17-10.63-1.45.22-1.1,0-2.26.39-3.34,1.23.74,2.62.24,3.92.47a1.08,1.08,0,0,0,1-.37.74.74,0,0,1,.84-.22C27.73,14.7,29.47,15.17,31.27,14.62Z"/>
    <path class="cls-7" d="M31.46,7.62c-.71-.06-1.61-.76-1.94.55-.18-.46-.6-.67-.95-1,.58-.38,0-.8,0-1.21.55-1-.21-.73-.7-.71-1-.57-1.66-.15-2.18.71-.85.1-1.2-.86-2-1a.44.44,0,0,1-.16-.17c.62-.26,1-.64.53-1.59-.54,1.32-1,.67-1.54.17a4.21,4.21,0,0,0-.48-.35c0-.18.06-.38.21-.46l.08,0a.4.4,0,0,1,.16,0l.13.11-.11-.13c.75-1.46,2.1-1.85,3.58-2,3.71-.47,4.89,2.28,5.31,5.05A12.53,12.53,0,0,1,31.46,7.62Z"/>
    <path class="cls-8" d="M31.27,14.62c-1.8.55-3.54.08-5.27-.37a.74.74,0,0,0-.84.22,1.08,1.08,0,0,1-1,.37c-1.3-.23-2.69.27-3.92-.47-.21-.83.4-1.61.16-2.44a15,15,0,0,0,3.63-3.11c.45,1,1.78,1.25,2,2.44,0,.17.36.29.57.41a7,7,0,0,0,4.64,1C31.26,13.34,31.27,14,31.27,14.62Z"/>
    <path class="cls-9" d="M50.48,31.16a3.08,3.08,0,0,1-.74,1.7c-.24-.59-.65-.38-1.08-.28A10.07,10.07,0,0,0,43.09,36c-1,1.25-2.19,2.49-1.06,4.29.07.12,0,.31,0,.47A3.93,3.93,0,0,1,39.66,42a2.23,2.23,0,0,1-1.12-2.77,9,9,0,0,1,2.12-3.66c.66-.71,1.61-1.19,1.88-2.23,1.73-.48,3.53-.77,4.87-2.15a1.12,1.12,0,0,1,1-.48C49.25,30.34,49.62,31.71,50.48,31.16Z"/>
    <path class="cls-10" d="M49.74,32.86c-.76,1.47-1.18,3-2.56,4.28-.75.67-1.57,1.4-2.29,2.16l-.23,0h-.1l-.1,0c-1.69-.35-1.82-.25-1.46,1.14-.24.34-.52.58-1,.28,0-.16.05-.35,0-.47-1.13-1.8,0-3,1.06-4.29a10.07,10.07,0,0,1,5.57-3.41C49.09,32.48,49.5,32.27,49.74,32.86Z"/>
    <path class="cls-6" d="M39.4,33.51a1.1,1.1,0,0,1-.59,1,8.15,8.15,0,0,0-2.59,3.78,3.55,3.55,0,0,0,.32,3.93c.05.29-.17.48-.29.71a.63.63,0,0,0-.19,0c-.33-1-1.23-.52-1.7-.45C33,42.68,33,41.86,32.94,41a7.48,7.48,0,0,1,2-5.54c.66-.82,1.18-1.82,2.3-2.19A2.28,2.28,0,0,1,39.4,33.51Z"/>
    <path class="cls-11" d="M37.93,54.27c0,.43-.21.81-.24,1.24s0,1.15-.82,1-.79-.73-.79-1.27.15-1.28.21-1.93c0-.21.12-.49-.23-.57-.07-.49-.23-.46-.6-.18a.61.61,0,0,1-1-.3c-.14-.38.15-.6.59-.66s.75-.08.71-.6c.43-2.69.11-5.42.45-8.11.12-.23.34-.42.29-.71.78-.69,1.08-.05,1.41.51a48.8,48.8,0,0,1-.19,5.92C37.63,50.52,38.1,52.38,37.93,54.27Z"/>
    <path class="cls-9" d="M31.26,12.7a7,7,0,0,1-4.64-1c-.21-.12-.54-.24-.57-.41-.22-1.19-1.55-1.46-2-2.44.12-.24.65-.24.41-.7A5.27,5.27,0,0,0,23.77,5c.76.09,1.11,1,2,1-.24,2.22-.11,2.38,1.95,2.36.58,0,1,.68,1.61.47.51,1,1,1,2.2.28C31.39,10.3,31.72,11.52,31.26,12.7Z"/>
    <path class="cls-8" d="M42.54,33.29c-.27,1-1.22,1.52-1.88,2.23a9,9,0,0,0-2.12,3.66A2.23,2.23,0,0,0,39.66,42c-.35.76-1.26.24-1.71.76-.33-.56-.63-1.2-1.41-.51a3.55,3.55,0,0,1-.32-3.93,8.15,8.15,0,0,1,2.59-3.78,1.1,1.1,0,0,0,.59-1l.22-.2h.29Z"/>
    <path class="cls-11" d="M29.08,52.55a1.76,1.76,0,0,0-.22,1.14c-.18,0-.41,0-.37.28,0,.08.22.13.33.19s0,.32-.05.48a3.22,3.22,0,0,1-1.3-.23,4.06,4.06,0,0,1,.24-2.07c.12-.43.12-.43-.51-.32-1.26-.67.66-.54.23-1-.34-.31-.62,0-.92.16s-.5,0-.53-.33l.54-.09c-.05-.09-.09-.25-.15-.25-.22,0-.31.16-.39.33-.45-.38-.19-.77,0-1.16h.25c.11.11.22.21.32.32.06-.09.11-.19.16-.28,1.13.32,1.57,0,1.46-1.26-.18-2.15.25-4.35-.45-6.47.78-.17,1.7-1,2.15.45-.18,2.5.15,5-.18,7.5C30.84,51.1,29.61,51.75,29.08,52.55Z"/>
    <path class="cls-11" d="M24.05,8.82a15,15,0,0,1-3.63,3.11c-1.3-.48-1.3-.48.12-2.51C20,9.35,19.59,9,19.08,9.2A.82.82,0,0,1,18,8.65a.92.92,0,0,1,.45-1.19c.82-.54,1.67-1,2.51-1.51.41.11.6-.26.89-.4.3.36.59.74.91,1.08.53.54.81,1.37,1.71,1.49C24.7,8.58,24.17,8.58,24.05,8.82Z"/>
    <path class="cls-12" d="M27.2,52c-.41.65-1.19,1-1.3,1.92a.49.49,0,0,1-.65.31c-.25-.1-.69-.22-.61-.45.21-.61-.18-1.47.68-1.83l.2,0-.16-.19c-.07-.16.5-.67-.27-.47-.57.15-.73.69-1.1,1s-.5.66-.92.24a.73.73,0,0,1,0-1.06l.73-.9c.53-.16,1.46.47,1.46-.73.18-.29.46-.23.72-.19-.18.39-.44.78,0,1.16h0c0,.34.16.48.53.33s.58-.47.92-.16C27.86,51.48,25.94,51.35,27.2,52Z"/>
    <path class="cls-12" d="M36.06,52.76c-1.21.6-1.52,2-2.52,2.79-.21.16-.36.53-.67.3s-.21-.58-.08-.88c.33-.72.67-1.44,1-2.17-.71-.17-.86.6-1.39.64-.36-.25.09-.66-.19-.92A4.51,4.51,0,0,1,35.8,51c0,.52-.4.56-.71.6s-.73.28-.59.66a.61.61,0,0,0,1,.3C35.83,52.3,36,52.27,36.06,52.76Z"/>
    <path class="cls-8" d="M51.2,28.28a9.82,9.82,0,0,1-.72,2.88c-.86.55-1.23-.82-2-.5A6.82,6.82,0,0,1,50,28.28Z"/>
    <path class="cls-6" d="M52.17,25.21a4.59,4.59,0,0,1-1,3.07H50C49.52,26.41,51,25.9,52.17,25.21Z"/>
    <path class="cls-9" d="M23.61,4.87c-.69,0-1.52-.42-1.77.68-.29.14-.48.51-.89.4.31-1,.21-2.13,1.17-2.85a4.21,4.21,0,0,1,.48.35c.51.5,1,1.15,1.54-.17C24.59,4.23,24.23,4.61,23.61,4.87Z"/>
    <path class="cls-5" d="M31.49,9.1c-1.16.77-1.69.71-2.2-.28.1-.21.36-.36.23-.65.33-1.31,1.23-.61,1.94-.55C31.52,8.11,31.84,8.6,31.49,9.1Z"/>
    <path class="cls-11" d="M32.42,53.44a.55.55,0,0,1-.26.48l-.18.17c-.35-.08-.72.66-1,0a.73.73,0,0,1,.42-1c.3-.12.37-.63.82-.6C32.51,52.78,32.06,53.19,32.42,53.44Z"/>
    <path class="cls-9" d="M44.46,39.33c-.19.76-1,.76-1.46,1.14C42.64,39.08,42.77,39,44.46,39.33Z"/>
    <path class="cls-12" d="M28.1,55.31c-.41-.09-.84-.31-.63-.9a3.22,3.22,0,0,0,1.3.23C28.9,55.21,28.53,55.39,28.1,55.31Z"/>
    <path class="cls-11" d="M25.25,49.84c0,1.2-.93.57-1.46.73A1.4,1.4,0,0,1,25.25,49.84Z"/>
    <path class="cls-12" d="M28.82,54.16c-.11-.06-.32-.11-.33-.19,0-.25.19-.25.37-.28C29.16,53.87,29.12,54,28.82,54.16Z"/>
    <path class="cls-12" d="M26.7,49.69c-.05.09-.1.19-.16.28-.1-.11-.21-.21-.32-.32Z"/>
    <path class="cls-6" d="M52.18,25.19l0-.29C52.28,25,52.38,25.08,52.18,25.19Z"/>
    <path class="cls-11" d="M25.52,51.92l-.2,0c0-.08,0-.16,0-.24Z"/>
    <path class="cls-12" d="M32.16,53.92c0,.14,0,.21-.18.17Z"/>
    <path class="cls-9" d="M44.89,39.3l-.09.18-.14-.16Z"/>
    <path class="cls-7" d="M36.75,32.62c-.71-.47-1.73,0-2.35-.75a2.16,2.16,0,0,1,1.4-.47c.09.19.17.2.26,0h0l.73.28C36.78,32,36.77,32.31,36.75,32.62Z"/>
    <path class="cls-2" d="M36.06,31.41c-.09.19-.17.18-.26,0Z"/>
    <path class="cls-13" d="M14,15.38c1.12,1,2.24,2,3.37,2.94.2.17.49.26.5.59a18.07,18.07,0,0,0-3.55,4.43c-.29.44-.55.91-1.07,1.07s-1.11.42-.76,1.24c.16.35-.23.41-.48.53s-.58.06-.77-.28c-.32-.58-.66-.8-.86.08a.38.38,0,0,1-.64.27c-.69-.48-1.15-.18-1.57.37a1.46,1.46,0,0,1-.09-1.36A1.85,1.85,0,0,0,7,22.7c-1.53-.81-3-1.81-3.13-3.79.47.42.94.84,1.42,1.25.33.27.5.14.51-.26a14.91,14.91,0,0,1,2.3,1.41c.81.71,1.2.41,1.6-.36.31-.61.69-1,1.51-.69s1.24-.38,1.3-1a2.22,2.22,0,0,1,1.49-2c.26-.1.6-.48.25-.56C13,16.38,14.08,15.79,14,15.38Z"/>
    <path class="cls-6" d="M50.71,23.75c-.22,1-1.3,1.11-1.78,1.84-.24.35-.61.58-.66,1.09A5.43,5.43,0,0,1,44.59,31a9.33,9.33,0,0,1-4.47.64c0-.56.48-.73.85-.91a38.55,38.55,0,0,0,5.59-4c1.44-1.06,1.35-2.54-.29-3.25a16.29,16.29,0,0,1-4.5-3,3,3,0,0,1-1.15-2.5,6.73,6.73,0,0,1,1.9-.89c-.08.58.39.93.62,1.38s.92.55,1.11,1.19A4,4,0,0,0,47,22.05C48.25,22.55,49.47,23.18,50.71,23.75Z"/>
    <path class="cls-1" d="M33.37,21.31a1.06,1.06,0,0,1,1-.29C34.31,22,33.82,21.59,33.37,21.31Z"/>
    <path class="cls-7" d="M45.64,15.31c1.43-1.55,3.43-2,5.28-2.74,1.37-.55,1.75-.45,2.42.74.25.44.25.76-.17,1-2,1.16-3.76,2.64-5.83,3.66C46.43,17.31,46.31,16.13,45.64,15.31Z"/>
    <path class="cls-8" d="M50.71,23.75c-1.24-.57-2.46-1.2-3.73-1.7a4,4,0,0,1-2.73-2.44c-.19-.64-.86-.7-1.11-1.19s-.7-.8-.62-1.38l1.19-.76c.31.22.38.61.78.83s1.21.84,1.3,1.37c.3,1.75,1.69,2,3,2.57a18.27,18.27,0,0,0,3.64.76C51.84,22.47,51.56,23.36,50.71,23.75Z"/>
    <path class="cls-9" d="M52.38,21.81a18.27,18.27,0,0,1-3.64-.76c-1.26-.54-2.65-.82-3-2.57-.09-.53-.76-1.08-1.3-1.37s-.47-.61-.78-.83a4.07,4.07,0,0,1,1.93-1c.67.82.79,2,1.7,2.67-.05.31-.7.54-.31.84s.82-.26,1.25-.36c.55,1.11,1.66,1.12,2.65,1.29.49.09,1,0,1.19.62-.13.14-.33.25-.39.41s.12.26.29.22C53.39,20.73,52.48,21.45,52.38,21.81Z"/>
    <path class="cls-7" d="M52.12,20.37c-.17-.64-.7-.53-1.19-.62-1-.17-2.1-.18-2.65-1.29,1.66-1,3.33-2,5-3,.48-.3.67-.18.66.29,0,1-.09,2.06-.21,3.08A1.61,1.61,0,0,1,52.12,20.37Z"/>
    <path class="cls-6" d="M39.91,33.31h-.29C39.72,33.13,39.82,33.13,39.91,33.31Z"/>
    <path class="cls-14" d="M14,15.38c.09.41-1,1,.25,1.27.35.08,0,.46-.25.56a2.22,2.22,0,0,0-1.49,2c-.06.64-.53,1.28-1.3,1s-1.2.08-1.51.69c-.4.77-.79,1.07-1.6.36a14.91,14.91,0,0,0-2.3-1.41L4.4,18.46c1.1.21,2.14-.26,3.21-.37.7-.07,1.45-.69,2.28-.83a3.51,3.51,0,0,0,2.9-2.43A1.73,1.73,0,0,1,14,15.38Z"/>
    <path class="cls-10" d="M6,15.59a8.31,8.31,0,0,1-2.34-2c-.78-.8-.25-1.76,0-2.64a.51.51,0,0,1,.69-.3A19.36,19.36,0,0,1,9,12.71C8,13.68,7.51,15.14,6,15.59Z"/>
    <path class="cls-9" d="M12.79,14.83a3.51,3.51,0,0,1-2.9,2.43c-.83.14-1.58.76-2.28.83-1.07.11-2.11.58-3.21.37a.54.54,0,0,0-.49-.25C3.05,17.26,3.63,16,3.23,15c-.07-.19.11-.39.3-.46s.35.1.46.26a11.75,11.75,0,0,0,2.63,2.19c.29.22.56.47.9.07,1.6,0,2.51-1.5,4-1.82-.13-.58-.84-.93-.33-1.55A5.23,5.23,0,0,1,12.79,14.83Z"/>
    <path class="cls-8" d="M11.14,13.64c-.51.62.2,1,.33,1.55C10,15.51,9.12,17,7.52,17A7.72,7.72,0,0,1,6,15.59c1.48-.45,2-1.91,2.93-2.88C9.84,12.65,10.4,13.36,11.14,13.64Z"/>
    <path class="cls-7" d="M3.91,18.21a.54.54,0,0,1,.49.25L5.79,19.9c0,.4-.18.53-.51.26-.48-.41-1-.83-1.42-1.25C3.64,18.66,4,18.45,3.91,18.21Z"/>
    <path class="cls-15" d="M29.52,8.17c.13.29-.13.44-.23.65-.64.21-1-.46-1.61-.47-.13-.27-.41-.17-.63-.24-1.28-.45-1.35-.79-.37-1.75.39-.38.82-.72,1.23-1.08.49,0,1.25-.29.7.71-1,1-1,1,0,1.22C28.92,7.5,29.34,7.71,29.52,8.17Z"/>
    <path class="cls-16" d="M21.84,5.56c.25-1.11,1.08-.73,1.77-.69a.44.44,0,0,0,.16.17,5.27,5.27,0,0,1,.69,3.08c-.9-.12-1.18-.95-1.71-1.49C22.43,6.29,22.14,5.91,21.84,5.56Z"/>
    <path class="cls-3" d="M27.91,5.28c-.41.36-.84.7-1.23,1.08-1,1-.91,1.3.37,1.75.22.07.5,0,.63.24-2.06,0-2.19-.14-1.95-2.36C26.25,5.13,26.92,4.71,27.91,5.28Z"/>
    <path class="cls-3" d="M28.57,7.21C27.65,7,27.65,7,28.61,6,28.56,6.4,29.15,6.82,28.57,7.21Z"/>
    <path class="cls-9" d="M22.7,2.71l-.13-.11s0,0,0,0h0Z"/>
    <path class="cls-12" d="M26,50.82c.08-.18.17-.36.39-.34.06,0,.1.16.15.25l-.54.09Z"/>
  </g>
</svg>
