<svg id="Layer_1" data-name="Layer 1" xmlns="http://www.w3.org/2000/svg" width="18mm" height="20mm" viewBox="0 0 51.02 56.69">
  <defs>
    <style>
      .cls-1 {
        fill: #8fd4df;
      }

      .cls-2 {
        fill: #53afb4;
      }

      .cls-3 {
        fill: #369ea0;
      }

      .cls-4 {
        fill: #55b0b5;
      }

      .cls-5 {
        fill: #e98638;
      }

      .cls-6 {
        fill: #e98637;
      }

      .cls-7 {
        fill: #e88638;
      }

      .cls-8 {
        fill: #43a6a9;
      }

      .cls-9 {
        fill: #52adb2;
      }

      .cls-10 {
        fill: #050f0f;
      }

      .cls-11 {
        fill: #f8f7f5;
      }

      .cls-12 {
        fill: #379b9e;
      }
    </style>
  </defs>
  <g>
    <path class="cls-1" d="M48.29,16.29a8.71,8.71,0,0,0-.1,1.61c0,1.08-.24,2-1.41,2.36-.26.08-.63.17-.59.6.3.3.65-.32.94.06a5.65,5.65,0,0,1-1.44,2.3c-1.06,1.46-2.62,2.35-3.19,4.41C41.85,30,39.41,30.94,37,31.25c-1.89.24-3.81-.26-5.7.16a1,1,0,0,0-1.37-.18c-.13.08-.3.15-.25.33.12.42.49.39.83.41a3.19,3.19,0,0,0,1.94,2.31,19.07,19.07,0,0,0,5.44,1.37c1,.05,1,.33.71,1.06a6.44,6.44,0,0,1-.47.8c-.83,1.38-2.22,2.25-3.18,3.52-.51.76-1.45.56-2.12,1h0c-.7-1.14-.85-1.12-1.62.19a5.87,5.87,0,0,1-2.57.14c-1.25,0-2.4-.58-3.64-.63-.45-1.37-1.33-.6-2.09-.42-.91-1-2.31-1.17-3.39-1.93A5,5,0,0,1,18.21,38c-.18-.51-.36-1-.53-1.52-.69-2-1.48-4-2-6.1-.86-3.25-.42-6.6-.46-9.91,0-.82.31-1.65.38-2.49s.37-.71.89-.42a8.41,8.41,0,0,0,3.59,1.13A10.12,10.12,0,0,0,26,17c-.41,2.23-.41,2.2,1.83,2.38.41,0,.9-.18,1.25.23-.26.35-.69.09-1,.26s-.92,0-.84.59.66.61,1.09.58a8,8,0,0,0,1.67-.31c1.34-.37,2.24-1.55,3.49-2,4.26-1.61,7.73-4.76,12.1-6.17.85-.27,1.32-.23,1.83.44s.51,1.35-.41,1.79a8.68,8.68,0,0,0-1.23.85,20.22,20.22,0,0,0-3.4,2.13,10.22,10.22,0,0,0-.88.72.46.46,0,0,0-.06.43c.07.17.25.13.39,0,1.47-.88,3.05-1.58,4.44-2.6.35-.23.7-.46,1.06-.68C48.14,15.24,48.43,15.57,48.29,16.29Z"/>
    <path class="cls-2" d="M26.08,4.06c-.47-1-.88-2.15-2.12-2.6a5.08,5.08,0,0,0-5.21.66,4.5,4.5,0,0,0-2.15,4l.58-.2c.55-1,1.35-1,1.95-.17a3.54,3.54,0,0,1,.61,2.68,7.5,7.5,0,0,1-3.41,3.27,1.07,1.07,0,0,0-.51.42,21.89,21.89,0,0,1-1.13,6.61c0,.38.16.81-.23,1.12A36.46,36.46,0,0,0,14,27.09a16.38,16.38,0,0,0,.69,4.16c0,.23,0,.45,0,.67a31.82,31.82,0,0,1,1.86,4.28A3.5,3.5,0,0,0,18.21,38c-.18-.51-.36-1-.53-1.52-.69-2-1.48-4-2-6.1-.86-3.25-.42-6.6-.46-9.91,0-.82.31-1.65.38-2.49s.37-.71.89-.42a8.41,8.41,0,0,0,3.59,1.13A10.12,10.12,0,0,0,26,17,40.55,40.55,0,0,0,26.55,9C26.55,7.31,26.8,5.63,26.08,4.06ZM24.45,9c-.42.3-.73,0-1.07-.16a16.5,16.5,0,0,1-1.59-.64c-.57-.27-.88-.67-.25-1.2.47-.39.78-1,1.39-1.2.41-.17.76-.42,1.11.06,1.09.52.69,1.33.41,2.11C24.37,8.34,24.94,8.68,24.45,9Z"/>
    <path class="cls-3" d="M49.48,19.16a8.69,8.69,0,0,1-2.67,5.18c-.32.3.2.7-.25.87-1.21.37-2.2.93-2.22,2.4a1.27,1.27,0,0,1-.14.54A8.19,8.19,0,0,1,38,32.68c-2.29.34-4.78.74-7-.72a.62.62,0,0,1,.3-.55c1.89-.42,3.81.08,5.7-.16,2.43-.31,4.87-1.26,5.52-3.62.57-2.06,2.13-2.95,3.19-4.41a5.65,5.65,0,0,0,1.44-2.3c-.29-.38-.64.24-.94-.06,0-.43.33-.52.59-.6C48,19.88,48.2,19,48.19,17.9a8.71,8.71,0,0,1,.1-1.61c.14-.72-.15-1-.88-.59-.36.22-.71.45-1.06.68a.72.72,0,0,1-.49-.72,8.68,8.68,0,0,1,1.23-.85c.92-.44,1-1,.41-1.79s-1-.71-1.83-.44c-4.37,1.41-7.84,4.56-12.1,6.17-1.25.47-2.15,1.65-3.49,2a8,8,0,0,1-1.67.31c-.43,0-1,0-1.09-.58s.54-.42.84-.59.7.09,1-.26a111.91,111.91,0,0,0,11.06-6.32,30.36,30.36,0,0,1,5.47-2.73c1.12-.48,3,.61,3.46,1.93A13,13,0,0,1,49.48,19.16Z"/>
    <path class="cls-4" d="M46.14,27.16c-.83,2.05-1,4.36-2.21,6.23a15.76,15.76,0,0,1-2.13,3.2,20.8,20.8,0,0,1-4.24,3.34A5.32,5.32,0,0,1,34.93,41c1-1.27,2.35-2.14,3.18-3.52a6.44,6.44,0,0,0,.47-.8c.33-.73.24-1-.71-1.06a19.07,19.07,0,0,1-5.44-1.37A3.19,3.19,0,0,1,30.49,32h.25c.08.15.16.16.24,0,2.19,1.46,4.68,1.06,7,.72a8.19,8.19,0,0,0,6.25-4.53,1.27,1.27,0,0,0,.14-.54c0-1.47,1-2,2.22-2.4A3.91,3.91,0,0,1,46.14,27.16Z"/>
    <path class="cls-3" d="M4.86,25.74c2.7,2.88,6.27,4.19,9.84,5.51,0,.23,0,.45,0,.67a18.58,18.58,0,0,1-8.32-3.53,8.35,8.35,0,0,1-3.85-5.85c0-.29-.27-.66-.12-.88.75-1.1,0-1.92-.45-2.8a10.69,10.69,0,0,1-.73-5.06,1.89,1.89,0,0,1,.69-1.28,5,5,0,0,1,5.43-.81,10.88,10.88,0,0,1,2.11,1.86c1.76,1.71,3.5,3.44,5.24,5.17,0,.38.16.81-.23,1.12a54.49,54.49,0,0,1-4.62-4.37,11.56,11.56,0,0,0-2.5-2.39,3.93,3.93,0,0,0-3-.61c-.19,0-.48.11-.52.38s.16.32.31.45a28.18,28.18,0,0,1,2.2,1.87c1,1,1.87,2,2.93,3.21a1,1,0,0,1-1-.38,53.45,53.45,0,0,0-5.08-4.18c-.23-.16-.42-.6-.75-.37a1.24,1.24,0,0,0-.36.94,8.32,8.32,0,0,0,.75,4.17c.26.55.7,1.23.57,1.71-.36,1.31.65,1.39,1.32,1.83a6.47,6.47,0,0,1,2.42,2c-1.53-.42-2.53-1.33-3.89-1.62A6,6,0,0,0,4.86,25.74Z"/>
    <path class="cls-5" d="M32.65,47.78c0,1.83,0,3.66.15,5.48,0,.42-.21.72-.21,1.11s-.05,1.11-.75,1.05S31,54.7,31,54.13a22.87,22.87,0,0,1,.24-2.32,3.12,3.12,0,0,0-2,2c-.11.37-.41.51-.7.69s-.35.46-.67.23a.57.57,0,0,1-.1-.74c.27-.62.56-1.23.88-1.94-.94.08-1.29.93-1.94,1.31-.23.14-.43.4-.7.22s-.2-.57-.05-.83a5.62,5.62,0,0,1,3.8-2.54c.8-.19,1-.25,1.08-1.14.21-2.28,0-4.56.34-6.83.77-1.31.92-1.33,1.62-.19a39.89,39.89,0,0,1-.12,4.51C32.67,46.94,32.65,47.36,32.65,47.78Z"/>
    <path class="cls-6" d="M25,50.68c-.65.54-1.28,1.15-.84,2.17.09.19-.12.51-.15.77,0,.42-.26.67-.67.61s-.7-.22-.73-.73a12.46,12.46,0,0,1,.25-2.5,2.68,2.68,0,0,0-1.62,1.64c-.15.43-.36.66-.83.51s-.49-.38-.42-.87a5.29,5.29,0,0,1,.58-1.61c-.7-.13-1,.36-1.31.67s-.44.56-.81.23a.72.72,0,0,1-.08-1,3.19,3.19,0,0,1,4-1.71c.79.18,1,.07,1-.76-.14-2.26.31-4.55-.43-6.77.76-.18,1.64-.95,2.09.42,0,2.4,0,4.81,0,7.21,0,.26-.07.52.18.75C25.54,50.05,25.4,50.33,25,50.68Z"/>
    <path class="cls-7" d="M19.74,8.44a7.5,7.5,0,0,1-3.41,3.27,1.07,1.07,0,0,0-.51.42c-1.37-.5-1.37-.5.07-2.33-.45-.21-.85-.48-1.35-.32A.8.8,0,0,1,13.47,9,.88.88,0,0,1,13.9,7.8c.88-.59,1.8-1.12,2.7-1.67l.58-.2c.32.39.61.79,1,1.14C18.63,7.58,18.88,8.37,19.74,8.44Z"/>
    <path class="cls-8" d="M45.86,15.66a.75.75,0,0,0,.48.73c-1.39,1-3,1.71-4.43,2.6-.14.08-.32.12-.39,0a.44.44,0,0,1,.06-.42,7.75,7.75,0,0,1,.88-.73A20.22,20.22,0,0,1,45.86,15.66Z"/>
    <path class="cls-9" d="M30.74,32h-.25c-.34,0-.71,0-.83-.41-.05-.17.12-.25.25-.33a1,1,0,0,1,1.37.18A.62.62,0,0,0,31,32h-.24Z"/>
    <path class="cls-1" d="M14,27.09a36.46,36.46,0,0,1,.45-7.23,54.49,54.49,0,0,1-4.62-4.37,11.56,11.56,0,0,0-2.5-2.39,3.93,3.93,0,0,0-3-.61c-.19,0-.48.11-.52.38s.16.32.31.45a28.18,28.18,0,0,1,2.2,1.87c1,1,1.87,2,2.93,3.21a1,1,0,0,1-1-.38,53.45,53.45,0,0,0-5.08-4.18c-.23-.16-.42-.6-.75-.37a1.24,1.24,0,0,0-.36.94,8.32,8.32,0,0,0,.75,4.17c.26.55.7,1.23.57,1.71-.36,1.31.65,1.39,1.32,1.83a6.47,6.47,0,0,1,2.42,2c-1.53-.42-2.53-1.33-3.89-1.62a6,6,0,0,0,1.56,3.27c2.7,2.88,6.27,4.19,9.84,5.51A16.38,16.38,0,0,1,14,27.09ZM7.54,24.46l-.18-.08.07-.09.18.09S7.55,24.46,7.54,24.46Zm1.91-5.41-.09-.18s.06-.05.08-.07l.09.18Z"/>
    <path class="cls-10" d="M24.45,8c-.08.34.49.68,0,1s-.73,0-1.07-.15c-.54-.2-1.07-.4-1.59-.64S20.9,7.57,21.54,7c.47-.39.78-1,1.39-1.2.41-.17.76-.41,1.11.06l-1.12,1.4Z"/>
    <path class="cls-11" d="M19.74,8.44c-.86-.07-1.11-.86-1.6-1.36s-.64-.76-1-1.15c.54-1,1.35-1,1.95-.16A3.52,3.52,0,0,1,19.74,8.44Z"/>
    <path class="cls-12" d="M24.45,8l-1.53-.71L24,5.89C25.13,6.41,24.72,7.22,24.45,8Z"/>
    <path class="cls-3" d="M30.74,32H31C30.9,32.12,30.82,32.11,30.74,32Z"/>
    <path class="cls-3" d="M9.53,19l-.08.07a1.51,1.51,0,0,1-.09-.18s.06-.05.08-.07Z"/>
    <path class="cls-3" d="M7.43,24.29l.18.09s-.06.09-.07.08l-.18-.08Z"/>
  </g>
</svg>
