<svg id="Layer_1" data-name="Layer 1" xmlns="http://www.w3.org/2000/svg" width="35mm" height="20mm" viewBox="0 0 99.21 56.69">
  <defs>
    <style>
      .cls-1 {
        fill: #fefefe;
      }

      .cls-2 {
        fill: #deeff1;
      }

      .cls-3 {
        fill: #dfeff1;
      }
    </style>
  </defs>
  <g>
    <path class="cls-1" d="M76.08,52.41l-.1,0a.21.21,0,0,1,0,.16S76.06,52.46,76.08,52.41Z"/>
    <path class="cls-2" d="M96.47,47.07a25.29,25.29,0,0,1-5,4.72c-1.24.6-2.66.72-3.83,1.51a.92.92,0,0,1-.88,0c-.88-1-2.19-.78-3.23-1.28a7.53,7.53,0,0,0-3.24,0c-.3.15-.49-.1-.76-.1a12.09,12.09,0,0,1-3.18,0c-.12,0-.31.2-.47.31a7.78,7.78,0,0,1-.84,0,.56.56,0,0,1-.19-.09c-.67-.6-1.08-.43-1.58.22-.38.49-.76-.63-1.23-.12A3.26,3.26,0,0,0,70.59,52a3.55,3.55,0,0,0-2.28.62c-.12.14-.07.41-.3.13-.79-1-1.71-.65-2.65-.29-.42.15-.58-.68-1.07-.36-.67.43-1.25.7-2,0-.24-.21-.88.22-1.2.59s-.39.49-.75.49h0c-.47-1.43-1-.1-1.43,0l-.09-.32L58.7,53c.06.09.12.17.17.26,0,.53-.41.37-.52.15-.57-1.16-1.14-.61-1.67,0a1.16,1.16,0,0,1-1.63.12,1.74,1.74,0,0,0-2.62-.18,1.73,1.73,0,0,1-2.06,0c-1.21-.57-2.35-1.14-3.58-.11a.3.3,0,0,1-.42,0c-1.83-1.16-3.75-.82-5.65-.25-.5.14-.41-.23-.53-.4s-.56-.73-.79-.25c-.69,1.43-1.63.43-2.46.33-.33,0-.6-.18-.85.13a3.88,3.88,0,0,0-.82-.09,3.29,3.29,0,0,0-1.13.2c-.38.15-.84-.35-1.41-.28a6.71,6.71,0,0,1-4.27-1.11,1,1,0,0,0-.92-.07c-.19.07-.4.14-.56,0-1.92-1.94-3.91-4-3.91-6.86a10,10,0,0,1,1.39-5.29c.67-1.08,1.34-2.14,2.11-3.15a13.72,13.72,0,0,1,4.77-4.17A3.33,3.33,0,0,0,33,29.71,11,11,0,0,1,38.48,23c.92-.48,2-.23,2.88-.9s1.38-1.44,1.2-2.09c-.36-1.36.52-2.15.94-3.15a13.27,13.27,0,0,1,3-4.94,8.85,8.85,0,0,1,4.12-2.26,8.08,8.08,0,0,1,4.46.13c1.14.35,2.7,1.16,3.61.81,2.14-.81,3.66.5,5.46.77s3,1.52,4.31,2.65a8.12,8.12,0,0,1,1.83,2.63c.39.74.16,1.69.73,2.49a2.07,2.07,0,0,0,2.87.77,1.39,1.39,0,0,1,1.29-.25c1.5.56,3.07,1,4.57,1.48a7.06,7.06,0,0,1,3.53,2.61c.63.8,2,1.94,1.11,3.48-.12.21.16.31.28.46.37.47.68.92.26,1.58s.21,1.11.23,1.7c0,.92.84.29,1.25.3a1.4,1.4,0,0,1,1.08.36,4.54,4.54,0,0,0,2.13,1.55c1,.42,1.11,1.38,1.35,2.19s1.07,1.49.37,2.42a2,2,0,0,0,.61.56A11,11,0,0,1,95.61,41a3.72,3.72,0,0,1,.87,1.3A22,22,0,0,1,97.2,46C97.31,46.62,96.69,46.76,96.47,47.07Z"/>
    <path class="cls-3" d="M31.24,21.46a2.52,2.52,0,0,0-.46,1.77c0,1.35-1,2-1.73,2.89a7.62,7.62,0,0,1-5,2.71,7.31,7.31,0,0,1-3.18.38c-1.1-.22-2.14-.92-3.39-.82-.4,0-1.13-.7-1.88-.63-.27,0-.69-.07-.8.08-.7.91-2,.67-2.73,1.45-.51.53-.56-.31-.57-.3-1.43.65-2.55-.77-4-.51a3.14,3.14,0,0,1-3-1.86,14.25,14.25,0,0,1-1.64-5.8c-.15-2.42,1.21-4.15,3-5.56a8.72,8.72,0,0,1,4.54-2.06c.2,0,.39,0,.43-.29.14-1,.9-1.69,1.28-2.55.93-2,2.81-2.37,4.63-2.92.39.15.84,0,1.22.36a2.2,2.2,0,0,0,1,.46,8.31,8.31,0,0,1,6.71,5.94c.43,1.4,1,1.82,2.27,1.87s1.68,1.27,2.21,2.14c.42.7.47,1.6,1.05,2.24A.87.87,0,0,1,31.24,21.46Z"/>
    <path class="cls-2" d="M72.07,52.27l-.09.31-.09,0Z"/>
    <path class="cls-2" d="M76.08,52.41c0,.05,0,.09-.07.13l0,0c0-.06-.06-.13-.08-.2h0a.33.33,0,0,1,0-.1Z"/>
    <path class="cls-2" d="M60.32,53.23l-.09.31-.09-.06.17-.25Z"/>
    <path class="cls-2" d="M91.5,51.79l.1.06-.1-.06Z"/>
    <path class="cls-2" d="M36.09,52.75l.1,0-.1,0Z"/>
    <path class="cls-1" d="M58.88,53.23h0c0-.09-.11-.17-.17-.26l.09-.06Z"/>
  </g>
</svg>
