<svg id="Layer_1" data-name="Layer 1" xmlns="http://www.w3.org/2000/svg" width="30mm" height="16mm" viewBox="0 0 85.04 45.35">
  <defs>
    <style>
      .cls-1 {
        fill: #deeff1;
      }
    </style>
  </defs>
  <g>
    <path class="cls-1" d="M80.9,37.91a9.3,9.3,0,0,1-2.24,2.18c-1.48,1.1-3.23,1-4.87,1.4-.57.13-1.2-.9-1.78.12-.34.58-1.06.17-1.59.31a28.84,28.84,0,0,1-10.11.47,4.24,4.24,0,0,0-2.15,0c-.48.2-.88-.53-1.44-.31-.23-.7-.79-.2-1.08-.17a4.7,4.7,0,0,1-3.19-.58c-.43-.29-.49.38-1,.26A6.18,6.18,0,0,0,49,41.15a3.37,3.37,0,0,0-1.73.41c-.56.41-1.27,0-1.93,0a4.51,4.51,0,0,0-1.59.16,5.55,5.55,0,0,1-2.26,0,22,22,0,0,0-3.1.44c-1.3.19-2.65-.08-3.92.58-.16.09-1.11-.36-1.76-.29s-1.46.15-2.19.24c-.09,0-.23.23-.27.09-.27-1-1.07-.21-1.45-.44-1.18-.75-2.07,0-3,.44a1.68,1.68,0,0,1-1.15.07c-1.25-.25-2.56-.24-3.83-.38-.41-.05-.56.24-.8.41s-.32.37-.5.18c-.8-.83-1.55-.08-2.34,0-.95.1-1.91-.16-2.9,0-.38,0-.91.35-1.33,0h0c-.13-.67-.46-.44-.86-.24s-1,.7-1.23-.3c0-.07-.22-.19-.26-.16-1,.55-1.78-.54-2.81-.42a2.69,2.69,0,0,1-2.16-1.08c-.63-1.12-1.73-1.41-2.64-2-.4-.24-.66-.42-.77-.82a8.15,8.15,0,0,1-.59-2.69c.2-1.46-.26-3.32,1.48-4.32.19-.11.45-.31.48-.49C3.79,28.52,5.83,28,7,26.82a5.07,5.07,0,0,1,3.05-.93A23.15,23.15,0,0,0,14,25c1-.27.9-1.42.79-2A7.83,7.83,0,0,1,16,17.53a19.54,19.54,0,0,1,3.21-3.86c1.08-1.05,2.64-1.57,3.36-3a.57.57,0,0,1,.35-.3c1.85-.35,3.46-1.55,5.45-1.43.38,0,.46.34.83.42a1.73,1.73,0,0,0,2-1.54c.45-1.89,2.31-2.28,3.33-3.51.12-.14,1.25-.35,1.62-.55,1.23-.66,2.38.06,3.55-.16a3.65,3.65,0,0,1,2,.58c1.52.68,3.12,1.08,4.68,1.62.25.09.35.13.46.38A3.28,3.28,0,0,0,49.61,8.4c.24,0,.38.4.7.39,0,.85.83,1.18,1.24,1.74a10.37,10.37,0,0,1,.93,2.3,7.64,7.64,0,0,1,.69,2.87c0,.48.43.6.92.49a20.51,20.51,0,0,0,3.61-1.46c2.1-.89,4.32-1.64,6.54-.67,1.26.56,2.21,1.81,3.46,2.44,1.77.88,1.51,2.8,2.45,4.09a.93.93,0,0,1,0,.9c-.44.49-.22.86,0,1.28a.78.78,0,0,1-.08,1A1.64,1.64,0,0,0,71.24,26a4,4,0,0,1,2.69,1.41,4,4,0,0,0,3.25,1.66,13.6,13.6,0,0,1,3.43,3c-.16,1.31.66,2.39.89,3.62A2.73,2.73,0,0,1,80.9,37.91Z"/>
    <path class="cls-1" d="M12.89,43.07l-.25.18-.06-.09Z"/>
    <path class="cls-1" d="M50.31,8.79l0-.1,0,.1Z"/>
  </g>
</svg>
