<svg id="Layer_1" data-name="Layer 1" xmlns="http://www.w3.org/2000/svg" width="27mm" height="17mm" viewBox="0 0 76.54 48.19">
  <defs>
    <style>
      .cls-1 {
        fill: #d9f9fd;
      }
    </style>
  </defs>
  <g>
    <path class="cls-1" d="M54.78,44.89l-.1,0a.21.21,0,0,1,0,.16S54.76,44.94,54.78,44.89Z"/>
    <path class="cls-1" d="M75.17,39.55a25.29,25.29,0,0,1-5,4.72c-1.24.6-2.66.72-3.83,1.51a.92.92,0,0,1-.88,0c-.88-1-2.19-.78-3.23-1.28a7.53,7.53,0,0,0-3.24,0c-.3.15-.49-.1-.76-.1a12.09,12.09,0,0,1-3.18,0c-.12,0-.31.2-.47.31a7.78,7.78,0,0,1-.84,0,.56.56,0,0,1-.19-.09c-.67-.6-1.08-.43-1.58.22-.38.49-.76-.63-1.23-.12a3.26,3.26,0,0,0-1.48-.27A3.55,3.55,0,0,0,47,45.1c-.12.14-.07.41-.3.13-.79-1-1.71-.65-2.65-.29-.42.15-.58-.68-1.07-.36-.67.43-1.25.7-2,.05-.24-.21-.88.22-1.2.59s-.39.49-.75.49h0c-.47-1.43-.95-.1-1.43,0l-.09-.32-.09.06c.06.09.12.17.17.26,0,.53-.41.37-.52.15-.57-1.16-1.14-.61-1.67,0a1.16,1.16,0,0,1-1.63.12,1.74,1.74,0,0,0-2.62-.18,1.73,1.73,0,0,1-2.06,0c-1.21-.57-2.35-1.14-3.58-.11a.3.3,0,0,1-.42,0c-1.83-1.16-3.75-.82-5.65-.25-.5.14-.41-.23-.53-.4s-.56-.73-.79-.25c-.69,1.43-1.63.43-2.46.33-.33,0-.6-.18-.85.13a3.88,3.88,0,0,0-.82-.09,3.29,3.29,0,0,0-1.13.2c-.38.15-.84-.35-1.41-.28A6.71,6.71,0,0,1,7.16,44a1,1,0,0,0-.92-.07c-.19.07-.4.14-.56,0-1.92-1.94-3.91-4-3.91-6.86a10,10,0,0,1,1.39-5.29c.67-1.08,1.34-2.14,2.11-3.15A13.72,13.72,0,0,1,10,24.39a3.33,3.33,0,0,0,1.63-2.2,11,11,0,0,1,5.51-6.72c.92-.48,1.95-.23,2.88-.9s1.38-1.44,1.2-2.09c-.36-1.36.52-2.15.94-3.15a13.27,13.27,0,0,1,3-4.94,8.85,8.85,0,0,1,4.12-2.26,8.08,8.08,0,0,1,4.46.13c1.14.35,2.7,1.16,3.61.81,2.14-.81,3.66.5,5.46.77s3,1.52,4.31,2.65A8.12,8.12,0,0,1,49,9.12c.39.74.16,1.69.73,2.49a2.07,2.07,0,0,0,2.87.77,1.39,1.39,0,0,1,1.29-.25c1.5.56,3.07,1,4.57,1.48A7.06,7.06,0,0,1,62,16.22c.63.8,2,1.94,1.11,3.48-.12.21.16.31.28.46.37.47.68.92.26,1.58s.21,1.11.23,1.7c0,.92.84.29,1.25.3a1.4,1.4,0,0,1,1.08.36,4.54,4.54,0,0,0,2.13,1.55c1,.42,1.11,1.38,1.35,2.19s1.07,1.49.37,2.42a2,2,0,0,0,.61.56,11,11,0,0,1,3.64,2.63,3.72,3.72,0,0,1,.87,1.3,22,22,0,0,1,.72,3.75C76,39.1,75.39,39.24,75.17,39.55Z"/>
    <path class="cls-1" d="M50.77,44.75l-.09.31L50.59,45Z"/>
    <path class="cls-1" d="M54.78,44.89s-.05.09-.07.13,0,0,0,0-.06-.13-.08-.2h0a.33.33,0,0,1,0-.1Z"/>
    <path class="cls-1" d="M39,45.71l-.09.31L38.84,46l.17-.25Z"/>
    <path class="cls-1" d="M70.19,44.27l.11.06-.11-.06Z"/>
    <path class="cls-1" d="M14.79,45.23l.1.06-.1-.06Z"/>
    <path class="cls-1" d="M37.58,45.71h0c0-.09-.11-.17-.17-.26l.09-.06Z"/>
  </g>
</svg>
