<svg id="Layer_1" data-name="Layer 1" xmlns="http://www.w3.org/2000/svg" width="26mm" height="20mm" viewBox="0 0 73.7 56.69">
  <defs>
    <style>
      .cls-1 {
        fill: #d9f9fd;
      }
    </style>
  </defs>
  <g>
    <path class="cls-1" d="M69.63,41a2.84,2.84,0,0,1-.21.43c-.6.15-1.36,0-1.52.92,0,.26-.44.2-.58.08a.54.54,0,0,0-.73-.07c-1,.93-2.18.41-3.26.68s-2.24.69-3.15-.45c-.29.56-.88.33-1.32.51-.64-1.06-1.28-.3-1.92,0h0c-.06-.14-.17-.4-.18-.4-1.22.43-2.16-1-3.43-.48-.89.37-1.64-.45-2.5-.62s-1.78.08-2.67,0c-.25,0-.52.28-.66-.2a.25.25,0,0,0-.4-.1c-1.11,1.31-2.52.43-3.74.38-.48,0-.83.15-1.23.17-.87.05-1.75-.13-2.61,0-.45.06-.91,0-1.33.12s-.52.22-.77-.14-.56-.12-.81.08c-.8.63-1.6,1.26-2.73.82-.07,0-.22,0-.23,0-.28,1.3-1.52.78-2.25,1a11.78,11.78,0,0,1-3,.39,7,7,0,0,1-2.53-.18c-.29-.1-.44.13-.58.32-.29.42-.61.33-.87,0C24,43.6,23.56,43.72,23,44c-.42.23-1,.67-1.4-.16-.06-.14-.21-.27-.38-.16-1.57,1.06-3.12.14-4.68,0a.75.75,0,0,0-.45,0c-1.25.74-2.67-.14-3.94.44A.53.53,0,0,1,11.7,44c-1.25-.95-2.66-.28-4-.45C7.07,43.5,6,43.5,5.53,42.54a2.22,2.22,0,0,0-1.92-1.2c-.45,0-.82-.22-.86-.48-.16-1.21-.94-2.18-.84-3.56.29-4,3-5.6,6.22-6.82a16.45,16.45,0,0,1,3.77-1.09,6.72,6.72,0,0,1,1,0c.87,0,1.66,0,2.2-1,.71-1.31,2.16-2,3.38-2.57a18.81,18.81,0,0,1,4.49-2c.43-.09.74.23,1.06.05a1.11,1.11,0,0,0,.63-1c0-1.75,1.46-2.23,2.43-3.18a5.65,5.65,0,0,1,4.59-1.59c.27,0,.43.08.59-.32A8.28,8.28,0,0,1,35.64,14a4.76,4.76,0,0,1,3.93-.44,10.34,10.34,0,0,1,6.31,4.56c.82,1.28,1.87,1.45,3.26,1.35a5.5,5.5,0,0,1,4.62,2.19c.59.68,1.61.91,2,1.86.06.16.31.18.34.44.14,1.44,1,1.43,2.22,1.33a15.21,15.21,0,0,1,4.52,0,2.58,2.58,0,0,1,1.3.71,4.39,4.39,0,0,0,1.6.95,3.57,3.57,0,0,1,1.87,2A10.06,10.06,0,0,0,71,33.42c.78.61.59,1.49.81,2.28C72.53,38.16,70.16,39.13,69.63,41Z"/>
    <path class="cls-1" d="M56.94,43.05h0l-.25.17-.06-.09Z"/>
    <path class="cls-1" d="M58.86,43.06l-.09.31C58.55,43.19,58.76,43.14,58.86,43.06Z"/>
    <path class="cls-1" d="M6.13,43.72,6,43.7a.17.17,0,0,1,0-.08l.08,0S6.12,43.67,6.13,43.72Z"/>
    <path class="cls-1" d="M69.42,41.38l.1.06-.1-.06Z"/>
  </g>
</svg>
